<?xml version="1.0" encoding="UTF-8"?>
<svg version="1.1" xmlns="http://www.w3.org/2000/svg" width="818" height="818">
<path d="M0 0 C3.78093907 1.32094492 7.59285311 2.54835435 11.39916992 3.79382324 C12.56083679 4.17783798 12.56083679 4.17783798 13.74597168 4.5696106 C82.84006409 27.33494084 149.6518798 32.81663366 220.05932617 12.23913574 C234.10200935 8.18016062 248.1500162 5.65116995 262.64916992 3.81335449 C263.42365479 3.70950439 264.19813965 3.6056543 264.99609375 3.49865723 C287.32363489 0.84476847 311.86315417 1.23811316 333.64916992 6.81335449 C334.53942871 7.0387793 335.4296875 7.2642041 336.34692383 7.49645996 C348.91107204 10.77145382 361.17466797 14.98088335 373.46664429 19.137146 C374.24875275 19.4015448 375.03086121 19.6659436 375.83666992 19.93835449 C376.61611969 20.20194763 377.39556946 20.46554077 378.19863892 20.73712158 C390.21633193 24.78989961 402.17541467 28.42046692 414.64916992 30.81335449 C415.76678711 31.04280762 416.8844043 31.27226074 418.03588867 31.50866699 C424.81042634 32.69191957 431.46995647 32.92352153 438.33398438 33.09631348 C494.05428706 34.51003944 553.35547455 56.06564429 594.52807617 94.50085449 C596.64916992 96.81335449 596.64916992 96.81335449 596.64916992 98.81335449 C597.30916992 98.81335449 597.96916992 98.81335449 598.64916992 98.81335449 C600.30541992 101.12194824 600.30541992 101.12194824 602.14916992 104.25085449 C602.75760742 105.26019043 603.36604492 106.26952637 603.99291992 107.30944824 C607.47066565 114.66684899 607.97265072 121.89220678 607.89916992 129.93835449 C607.9069043 130.79300293 607.91463867 131.64765137 607.92260742 132.52819824 C607.91031374 136.52979148 607.70479404 139.63390958 606.50854492 143.49304199 C605.4259019 147.67598096 606.4132668 149.69367743 607.64916992 153.81335449 C608.99919646 169.06920995 607.92663579 184.13185889 603.64916992 198.81335449 C603.37540527 199.76484375 603.10164062 200.71633301 602.81958008 201.69665527 C598.31010036 217.0044447 592.80409518 230.79819132 583.08666992 243.56335449 C579.63904727 248.25021478 577.76062109 253.29215588 575.71166992 258.68835449 C567.63165651 279.85511086 553.24770839 295.23865696 532.64916992 304.81335449 C529.94789173 305.72725999 527.46343497 306.31671948 524.64916992 306.81335449 C525.13385742 307.43339355 525.61854492 308.05343262 526.11791992 308.69226074 C537.48023777 323.70363066 544.61696324 340.13648982 549.02416992 358.37585449 C550.71094033 365.33352095 553.10285902 371.05996366 556.69189453 377.23132324 C568.01881104 397.1999774 568.79285027 424.21977525 562.84448242 445.96960449 C555.40905514 470.64889506 538.49711102 492.33742361 515.83959961 504.80944824 C493.43465066 516.56054311 466.10723603 520.06885736 441.64916992 512.81335449 C428.17780862 508.5592404 416.07990852 502.19971168 405.36010742 493.03601074 C387.47825546 478.37495344 361.7280638 469.30093676 338.64916992 468.81335449 C337.38331055 468.76308105 336.11745117 468.71280762 334.81323242 468.66101074 C304.06554931 467.77436649 273.20228794 479.81328152 250.75463867 500.79772949 C250.05983398 501.46288574 249.3650293 502.12804199 248.64916992 502.81335449 C247.78291992 503.61772949 246.91666992 504.42210449 246.02416992 505.25085449 C222.06486534 531.10168312 216.61103626 561.60627995 217.64916992 595.81335449 C219.23944068 626.77191808 235.39798658 655.78856251 258.01342773 676.36950684 C268.79305209 685.88453645 281.33123996 692.6138034 294.89916992 697.18835449 C295.6069458 697.42699219 296.31472168 697.66562988 297.04394531 697.91149902 C307.7041451 701.30577928 318.11134531 702.16209101 329.23632812 702.12902832 C331.44801471 702.12587397 333.65835116 702.14939265 335.86987305 702.17468262 C344.11359956 702.21042646 351.56933284 701.53039671 359.60498047 699.55627441 C362.60737215 698.82355504 365.59617409 698.2861041 368.64916992 697.81335449 C363.01074462 725.70872178 346.93198432 747.77251787 323.26245117 763.54772949 C291.83820425 783.73239537 253.26915543 789.03019261 216.64916992 789.06335449 C215.47797104 789.06486511 215.47797104 789.06486511 214.28311157 789.06640625 C184.54211822 789.04073524 155.62629431 784.17006323 126.64916992 777.81335449 C126.2134668 778.34444824 125.77776367 778.87554199 125.32885742 779.42272949 C120.97086084 784.59195488 117.20006294 788.62972349 110.64916992 790.81335449 C58.21910364 794.48713291 -1.04033234 770.63872637 -41.10864258 737.65319824 C-43.42123317 735.75558471 -45.78438029 733.93931621 -48.16333008 732.12585449 C-51.4807023 729.55213138 -54.45384698 726.86281038 -57.35083008 723.81335449 C-58.47497092 722.70831313 -59.6000464 721.60422213 -60.72583008 720.50085449 C-64.45861997 716.7600198 -67.9355359 712.84440402 -71.35083008 708.81335449 C-72.01727539 708.0360498 -72.6837207 707.25874512 -73.37036133 706.45788574 C-78.08212993 700.84621178 -82.428103 695.04002517 -86.66333008 689.06335449 C-87.16695068 688.35445068 -87.67057129 687.64554688 -88.18945312 686.91516113 C-96.35083008 675.27065186 -96.35083008 675.27065186 -96.35083008 671.81335449 C-97.01083008 672.14335449 -97.67083008 672.47335449 -98.35083008 672.81335449 C-107.24048411 673.75479355 -114.6884384 672.39588081 -121.84692383 666.89538574 C-124.43658617 664.61276605 -126.90046481 662.24463591 -129.35083008 659.81335449 C-130.62313477 658.59712402 -130.62313477 658.59712402 -131.92114258 657.35632324 C-154.78257394 635.1590619 -169.37281291 606.34043516 -180.35083008 576.81335449 C-180.65359863 576.02283691 -180.95636719 575.23231934 -181.26831055 574.41784668 C-195.75352081 536.39950461 -200.21461917 490.07759493 -194.35083008 449.87585449 C-194.05199623 446.75816998 -193.93217273 445.42746571 -195.70629883 442.82507324 C-196.93194467 441.64646712 -198.20080566 440.51129151 -199.50708008 439.42272949 C-207.38990881 432.54195526 -209.16284508 417.56598453 -210.35083008 407.81335449 C-210.51320048 404.98527421 -210.56063076 402.16128125 -210.58911133 399.32897949 C-210.59885986 398.52395996 -210.6086084 397.71894043 -210.61865234 396.88952637 C-210.87050744 370.64622523 -208.48832905 346.16831949 -201.35083008 320.81335449 C-201.14264648 320.04104492 -200.93446289 319.26873535 -200.7199707 318.47302246 C-194.82969102 296.65633272 -186.54372039 275.45078185 -175.35083008 255.81335449 C-174.39027868 254.002029 -173.43174061 252.18963344 -172.47583008 250.37585449 C-163.23896946 233.60700835 -152.58810891 218.21187901 -140.60083008 203.31335449 C-140.08214355 202.66672852 -139.56345703 202.02010254 -139.02905273 201.35388184 C-135.8507299 197.45894763 -132.48829726 193.8688858 -128.8996582 190.3494873 C-127.15843396 188.6225354 -125.55287652 186.81579074 -123.97583008 184.93835449 C-117.62924766 177.61862944 -110.77899973 171.16576744 -103.21411133 165.11804199 C-100.33436679 162.800103 -97.53354087 160.40526893 -94.72583008 158.00085449 C-78.77727436 144.71383006 -61.14477034 134.32468014 -42.96289062 124.4420166 C-42.14731689 123.99865967 -41.33174316 123.55530273 -40.49145508 123.09851074 C-39.76474609 122.70542725 -39.03803711 122.31234375 -38.28930664 121.90734863 C-36.59757598 120.95260744 -34.96712571 119.89088491 -33.35083008 118.81335449 C-34.20354492 117.72280762 -34.20354492 117.72280762 -35.07348633 116.61022949 C-48.33324524 99.34376547 -58.4736793 78.99795965 -59.35083008 56.81335449 C-59.40239258 55.73183105 -59.45395508 54.65030762 -59.50708008 53.53601074 C-59.90122824 37.88504411 -57.90220467 18.40323987 -47.78833008 5.81335449 C-34.0040502 -7.89406137 -16.86902227 -5.909574 0 0 Z " fill="#000000" transform="translate(210.350830078125,15.1866455078125)"/>
<path d="M0 0 C3.78093907 1.32094492 7.59285311 2.54835435 11.39916992 3.79382324 C12.56083679 4.17783798 12.56083679 4.17783798 13.74597168 4.5696106 C82.84006409 27.33494084 149.6518798 32.81663366 220.05932617 12.23913574 C234.10200935 8.18016062 248.1500162 5.65116995 262.64916992 3.81335449 C263.42365479 3.70950439 264.19813965 3.6056543 264.99609375 3.49865723 C287.32363489 0.84476847 311.86315417 1.23811316 333.64916992 6.81335449 C334.53942871 7.0387793 335.4296875 7.2642041 336.34692383 7.49645996 C348.91107204 10.77145382 361.17466797 14.98088335 373.46664429 19.137146 C374.24875275 19.4015448 375.03086121 19.6659436 375.83666992 19.93835449 C376.61611969 20.20194763 377.39556946 20.46554077 378.19863892 20.73712158 C390.21633193 24.78989961 402.17541467 28.42046692 414.64916992 30.81335449 C415.76678711 31.04280762 416.8844043 31.27226074 418.03588867 31.50866699 C424.81042634 32.69191957 431.46995647 32.92352153 438.33398438 33.09631348 C494.05428706 34.51003944 553.35547455 56.06564429 594.52807617 94.50085449 C596.64916992 96.81335449 596.64916992 96.81335449 596.64916992 98.81335449 C597.30916992 98.81335449 597.96916992 98.81335449 598.64916992 98.81335449 C600.30541992 101.12194824 600.30541992 101.12194824 602.14916992 104.25085449 C602.75760742 105.26019043 603.36604492 106.26952637 603.99291992 107.30944824 C607.47066565 114.66684899 607.97265072 121.89220678 607.89916992 129.93835449 C607.9069043 130.79300293 607.91463867 131.64765137 607.92260742 132.52819824 C607.91031374 136.52979148 607.70479404 139.63390958 606.50854492 143.49304199 C605.4259019 147.67598096 606.4132668 149.69367743 607.64916992 153.81335449 C608.99919646 169.06920995 607.92663579 184.13185889 603.64916992 198.81335449 C603.37540527 199.76484375 603.10164062 200.71633301 602.81958008 201.69665527 C598.31010036 217.0044447 592.80409518 230.79819132 583.08666992 243.56335449 C579.63904727 248.25021478 577.76062109 253.29215588 575.71166992 258.68835449 C567.63165651 279.85511086 553.24770839 295.23865696 532.64916992 304.81335449 C529.94789173 305.72725999 527.46343497 306.31671948 524.64916992 306.81335449 C525.13385742 307.43339355 525.61854492 308.05343262 526.11791992 308.69226074 C537.48023777 323.70363066 544.61696324 340.13648982 549.02416992 358.37585449 C550.71094033 365.33352095 553.10285902 371.05996366 556.69189453 377.23132324 C568.01881104 397.1999774 568.79285027 424.21977525 562.84448242 445.96960449 C555.40905514 470.64889506 538.49711102 492.33742361 515.83959961 504.80944824 C493.43465066 516.56054311 466.10723603 520.06885736 441.64916992 512.81335449 C428.17780862 508.5592404 416.07990852 502.19971168 405.36010742 493.03601074 C387.47825546 478.37495344 361.7280638 469.30093676 338.64916992 468.81335449 C337.38331055 468.76308105 336.11745117 468.71280762 334.81323242 468.66101074 C304.06554931 467.77436649 273.20228794 479.81328152 250.75463867 500.79772949 C250.05983398 501.46288574 249.3650293 502.12804199 248.64916992 502.81335449 C247.78291992 503.61772949 246.91666992 504.42210449 246.02416992 505.25085449 C222.06486534 531.10168312 216.61103626 561.60627995 217.64916992 595.81335449 C219.23944068 626.77191808 235.39798658 655.78856251 258.01342773 676.36950684 C268.79305209 685.88453645 281.33123996 692.6138034 294.89916992 697.18835449 C295.6069458 697.42699219 296.31472168 697.66562988 297.04394531 697.91149902 C307.7041451 701.30577928 318.11134531 702.16209101 329.23632812 702.12902832 C331.44801471 702.12587397 333.65835116 702.14939265 335.86987305 702.17468262 C344.11359956 702.21042646 351.56933284 701.53039671 359.60498047 699.55627441 C362.60737215 698.82355504 365.59617409 698.2861041 368.64916992 697.81335449 C363.01074462 725.70872178 346.93198432 747.77251787 323.26245117 763.54772949 C291.83820425 783.73239537 253.26915543 789.03019261 216.64916992 789.06335449 C215.47797104 789.06486511 215.47797104 789.06486511 214.28311157 789.06640625 C184.54211822 789.04073524 155.62629431 784.17006323 126.64916992 777.81335449 C126.2134668 778.34444824 125.77776367 778.87554199 125.32885742 779.42272949 C120.97086084 784.59195488 117.20006294 788.62972349 110.64916992 790.81335449 C58.21910364 794.48713291 -1.04033234 770.63872637 -41.10864258 737.65319824 C-43.42123317 735.75558471 -45.78438029 733.93931621 -48.16333008 732.12585449 C-51.4807023 729.55213138 -54.45384698 726.86281038 -57.35083008 723.81335449 C-58.47497092 722.70831313 -59.6000464 721.60422213 -60.72583008 720.50085449 C-64.45861997 716.7600198 -67.9355359 712.84440402 -71.35083008 708.81335449 C-72.01727539 708.0360498 -72.6837207 707.25874512 -73.37036133 706.45788574 C-78.08212993 700.84621178 -82.428103 695.04002517 -86.66333008 689.06335449 C-87.16695068 688.35445068 -87.67057129 687.64554688 -88.18945312 686.91516113 C-96.35083008 675.27065186 -96.35083008 675.27065186 -96.35083008 671.81335449 C-97.01083008 672.14335449 -97.67083008 672.47335449 -98.35083008 672.81335449 C-107.24048411 673.75479355 -114.6884384 672.39588081 -121.84692383 666.89538574 C-124.43658617 664.61276605 -126.90046481 662.24463591 -129.35083008 659.81335449 C-130.62313477 658.59712402 -130.62313477 658.59712402 -131.92114258 657.35632324 C-154.78257394 635.1590619 -169.37281291 606.34043516 -180.35083008 576.81335449 C-180.65359863 576.02283691 -180.95636719 575.23231934 -181.26831055 574.41784668 C-195.75352081 536.39950461 -200.21461917 490.07759493 -194.35083008 449.87585449 C-194.05199623 446.75816998 -193.93217273 445.42746571 -195.70629883 442.82507324 C-196.93194467 441.64646712 -198.20080566 440.51129151 -199.50708008 439.42272949 C-207.38990881 432.54195526 -209.16284508 417.56598453 -210.35083008 407.81335449 C-210.51320048 404.98527421 -210.56063076 402.16128125 -210.58911133 399.32897949 C-210.59885986 398.52395996 -210.6086084 397.71894043 -210.61865234 396.88952637 C-210.87050744 370.64622523 -208.48832905 346.16831949 -201.35083008 320.81335449 C-201.14264648 320.04104492 -200.93446289 319.26873535 -200.7199707 318.47302246 C-194.82969102 296.65633272 -186.54372039 275.45078185 -175.35083008 255.81335449 C-174.39027868 254.002029 -173.43174061 252.18963344 -172.47583008 250.37585449 C-163.23896946 233.60700835 -152.58810891 218.21187901 -140.60083008 203.31335449 C-140.08214355 202.66672852 -139.56345703 202.02010254 -139.02905273 201.35388184 C-135.8507299 197.45894763 -132.48829726 193.8688858 -128.8996582 190.3494873 C-127.15843396 188.6225354 -125.55287652 186.81579074 -123.97583008 184.93835449 C-117.62924766 177.61862944 -110.77899973 171.16576744 -103.21411133 165.11804199 C-100.33436679 162.800103 -97.53354087 160.40526893 -94.72583008 158.00085449 C-78.77727436 144.71383006 -61.14477034 134.32468014 -42.96289062 124.4420166 C-42.14731689 123.99865967 -41.33174316 123.55530273 -40.49145508 123.09851074 C-39.76474609 122.70542725 -39.03803711 122.31234375 -38.28930664 121.90734863 C-36.59757598 120.95260744 -34.96712571 119.89088491 -33.35083008 118.81335449 C-34.20354492 117.72280762 -34.20354492 117.72280762 -35.07348633 116.61022949 C-48.33324524 99.34376547 -58.4736793 78.99795965 -59.35083008 56.81335449 C-59.40239258 55.73183105 -59.45395508 54.65030762 -59.50708008 53.53601074 C-59.90122824 37.88504411 -57.90220467 18.40323987 -47.78833008 5.81335449 C-34.0040502 -7.89406137 -16.86902227 -5.909574 0 0 Z M-25.35083008 22.81335449 C-33.2207365 33.2629452 -32.70371031 49.5080816 -31.07397461 61.92224121 C-27.77590276 80.60195881 -15.8894011 100.83936926 -0.61499023 112.09216309 C12.25071803 121.07138974 25.5005789 127.03019348 41.45385742 126.91101074 C42.17783722 126.90959579 42.90181702 126.90818085 43.6477356 126.90672302 C45.93992399 126.90116525 48.23201149 126.88862082 50.52416992 126.87585449 C52.0866685 126.87083403 53.64916863 126.86627208 55.21166992 126.86218262 C59.02420827 126.85120969 62.83667204 126.83397459 66.64916992 126.81335449 C64.77679621 127.77680893 62.90114002 128.73388551 61.02416992 129.68835449 C59.9800293 130.22202637 58.93588867 130.75569824 57.86010742 131.30554199 C48.40899014 135.74365789 39.27675752 135.99426543 29.02416992 136.00085449 C28.01354492 136.01310059 27.00291992 136.02534668 25.96166992 136.03796387 C20.65159732 136.04841677 16.69123387 135.5233306 11.64916992 133.81335449 C3.06213463 132.51564479 -3.32659982 135.50965304 -10.91333008 139.25085449 C-12.05721191 139.79854492 -13.20109375 140.34623535 -14.37963867 140.91052246 C-17.71633595 142.51989976 -21.0362759 144.15892541 -24.35083008 145.81335449 C-25.20821777 146.23922852 -26.06560547 146.66510254 -26.94897461 147.10388184 C-49.91525268 158.61369765 -71.00534028 173.34653255 -89.97583008 190.65710449 C-92.11469566 192.59896929 -94.28502393 194.49313045 -96.47583008 196.37585449 C-103.32600142 202.37490234 -109.31390228 208.80428709 -115.00708008 215.91101074 C-117.35945949 218.82404058 -119.78858679 221.65868946 -122.22583008 224.50085449 C-161.66529037 271.8647813 -187.61505613 339.29029345 -183.18530273 401.12390137 C-182.54796112 408.10352932 -181.17226202 414.40100916 -178.35083008 420.81335449 C-175.98991499 417.27198187 -174.96968321 413.6469459 -173.72583008 409.62585449 C-171.00132671 401.14344183 -167.47469195 393.37852939 -163.26635742 385.53991699 C-162.4672313 384.03287167 -161.71177132 382.50283399 -160.96411133 380.96960449 C-154.81643724 368.71117928 -145.43305646 357.99356356 -136.35083008 347.81335449 C-136.61710205 348.41059326 -136.88337402 349.00783203 -137.15771484 349.62316895 C-143.03806713 362.85807417 -148.65087927 376.11007009 -153.35083008 389.81335449 C-153.69621826 390.81858154 -153.69621826 390.81858154 -154.04858398 391.84411621 C-159.74160479 408.65586144 -163.64874516 425.99255451 -166.04223633 443.57067871 C-166.3335299 445.68762707 -166.65358919 447.79859932 -166.97583008 449.91101074 C-169.93925885 470.82640912 -169.34932061 492.93801861 -166.35083008 513.81335449 C-166.13046007 515.46695799 -165.91041904 517.12060535 -165.69067383 518.77429199 C-159.4806591 564.05094482 -140.80442446 615.71577144 -104.35083008 645.81335449 C-103.69083008 645.81335449 -103.03083008 645.81335449 -102.35083008 645.81335449 C-102.60477539 644.91358887 -102.8587207 644.01382324 -103.12036133 643.08679199 C-110.16603086 617.17369843 -110.84186691 592.19819586 -106.35083008 565.81335449 C-106.02083008 565.81335449 -105.69083008 565.81335449 -105.35083008 565.81335449 C-105.21507568 566.48278076 -105.07932129 567.15220703 -104.93945312 567.84191895 C-104.30949191 570.93733986 -103.67393858 574.03158845 -103.03833008 577.12585449 C-102.82499023 578.17837402 -102.61165039 579.23089355 -102.3918457 580.31530762 C-95.59989685 613.26132815 -83.13494468 646.42965112 -63.35083008 673.81335449 C-62.9217334 674.40777344 -62.49263672 675.00219238 -62.05053711 675.61462402 C-56.60042122 683.074741 -50.72101243 690.11826331 -44.35083008 696.81335449 C-43.84567871 697.3457373 -43.34052734 697.87812012 -42.82006836 698.42663574 C-34.58010516 707.05364596 -26.00399757 714.80119877 -16.35083008 721.81335449 C-15.52373535 722.42291992 -15.52373535 722.42291992 -14.67993164 723.0447998 C16.95794917 746.10983549 63.7945425 765.25055326 103.64916992 763.81335449 C100.77932209 761.56305197 97.77483289 759.62152998 94.67431641 757.70495605 C88.60918729 753.93711445 83.439621 750.15513626 78.64916992 744.81335449 C77.8525293 744.02315918 77.05588867 743.23296387 76.23510742 742.41882324 C66.23714493 732.34534744 59.05809175 720.88768088 53.64916992 707.81335449 C54.14803711 708.35862793 54.6469043 708.90390137 55.16088867 709.46569824 C76.96594184 732.36687617 108.96707533 743.50196818 138.64916992 751.81335449 C139.43211426 752.03362305 140.21505859 752.2538916 141.02172852 752.48083496 C154.6255604 756.21503482 168.68492728 757.99099474 182.64916992 759.81335449 C183.42599121 759.92155518 184.2028125 760.02975586 185.00317383 760.14123535 C193.13037105 761.13259423 201.33012962 760.99941413 209.50463867 760.99865723 C212.11548607 761.00082651 214.72589787 761.0189845 217.33666992 761.03796387 C228.57457057 761.07547887 239.51582254 760.31478306 250.64916992 758.81335449 C251.8025737 758.66288918 251.8025737 758.66288918 252.97927856 758.50938416 C273.63764047 755.7992026 297.56235668 748.93133884 312.64916992 733.81335449 C313.90647975 731.69372882 313.90647975 731.69372882 314.64916992 729.81335449 C313.61663086 729.68960449 312.5840918 729.56585449 311.52026367 729.43835449 C285.26970261 725.89741091 260.62981076 715.20732565 240.64916992 697.81335449 C240.12774414 697.36878906 239.60631836 696.92422363 239.0690918 696.46618652 C220.69336127 680.72952368 207.57635815 661.24448661 198.64916992 638.81335449 C198.07102539 637.55265137 198.07102539 637.55265137 197.48120117 636.26647949 C193.72496862 627.91929605 192.30927846 618.76305863 190.64916992 609.81335449 C190.37882935 608.44050293 190.37882935 608.44050293 190.10302734 607.03991699 C183.37747539 570.70321241 192.61287154 533.49393234 213.30737305 503.21447754 C218.47953126 495.93049309 224.28899018 489.17539165 230.19018555 482.47790527 C232.70226153 479.61188552 235.17461132 476.71176559 237.64916992 473.81335449 C236.64241211 473.82906494 235.6356543 473.84477539 234.59838867 473.86096191 C230.78141625 473.91620001 226.96447718 473.95003723 223.1472168 473.97814941 C221.51043718 473.99302632 219.87369585 474.01333429 218.23706055 474.03967285 C206.97770012 474.21603261 196.62853869 473.31963243 185.64916992 470.81335449 C184.76181152 470.6250708 183.87445313 470.43678711 182.96020508 470.24279785 C159.6858345 465.16687237 137.38861214 454.49020007 118.64916992 439.81335449 C117.79452148 439.16237793 116.93987305 438.51140137 116.05932617 437.84069824 C89.11706582 416.6746053 72.13256285 389.16789775 61.64916992 356.81335449 C61.30756836 355.78210449 60.9659668 354.75085449 60.61401367 353.68835449 C56.60335692 340.46729506 56.31727532 326.51322592 56.64916992 312.81335449 C56.73553711 313.7479248 56.8219043 314.68249512 56.91088867 315.64538574 C60.64170025 352.00905178 76.3586622 385.60917235 101.64916992 411.81335449 C102.43807617 412.6654248 103.22698242 413.51749512 104.03979492 414.39538574 C131.81604147 443.59723435 174.71233898 458.73739176 214.39526367 460.03601074 C239.36278821 460.54196232 262.33733805 457.1794768 285.65869141 448.32141113 C292.56967801 445.73847462 299.36497243 444.04999262 306.64916992 442.81335449 C307.52951904 442.64706543 308.40986816 442.48077637 309.31689453 442.30944824 C316.36646142 441.029475 323.1747729 440.42674688 330.33666992 440.43835449 C331.40175781 440.43996582 332.4668457 440.44157715 333.56420898 440.4432373 C355.5340253 440.77172181 375.93364022 445.78259077 395.78588867 454.95495605 C397.45208998 455.72256137 399.12816417 456.46865145 400.80541992 457.21179199 C409.58197548 461.29336218 416.97842334 466.99545587 424.64916992 472.81335449 C437.93811224 482.77075525 451.57694349 488.41842687 468.33666992 488.31335449 C469.38032715 488.30908447 470.42398438 488.30481445 471.49926758 488.30041504 C480.62615463 488.10145424 488.27897549 486.34743659 496.64916992 482.81335449 C497.57600586 482.44081543 498.5028418 482.06827637 499.45776367 481.68444824 C515.11696447 474.67323041 527.63155823 460.35738371 533.93823242 444.59069824 C540.13267034 426.60900255 540.05513798 405.69473551 531.71166992 388.50085449 C530.09752556 385.41461047 528.41963165 382.44548807 526.57495117 379.48913574 C524.33446404 375.58306888 523.57033365 371.70657448 522.77416992 367.31335449 C519.65991017 352.04282933 513.27940788 338.75871143 504.64916992 325.81335449 C503.65916992 325.81335449 502.66916992 325.81335449 501.64916992 325.81335449 C501.50817871 326.73559814 501.3671875 327.6578418 501.22192383 328.60803223 C500.6912859 332.06934735 500.15793114 335.53022211 499.62280273 338.99084473 C499.39289191 340.48124001 499.16402702 341.97179706 498.9362793 343.46252441 C497.73675034 351.30944301 496.43034213 359.07335163 494.64916992 366.81335449 C494.17286363 370.69938108 493.98539872 373.76238342 496.14916992 377.18835449 C499.56645855 379.4095921 502.65661003 380.01484251 506.64916992 380.81335449 C501.64199774 382.48241189 496.67416786 382.22979686 491.64916992 380.81335449 C491.55120117 379.76019043 491.45323242 378.70702637 491.35229492 377.62194824 C489.30663977 357.24865011 484.47861119 338.82874676 468.64916992 324.81335449 C467.65916992 324.81335449 466.66916992 324.81335449 465.64916992 324.81335449 C463.38160033 330.61271389 462.67365586 336.56654826 461.77416992 342.68835449 C459.643147 356.53399493 456.85357855 369.74696688 451.64916992 382.81335449 C445.0748625 383.27374017 439.53806788 381.5637264 433.27416992 379.68835449 C412.20640837 373.60149052 391.17250659 368.49785646 369.35302734 366.10412598 C338.78022388 362.74704186 338.78022388 362.74704186 325.64916992 355.81335449 C324.8215918 355.4072998 323.99401367 355.00124512 323.14135742 354.58288574 C316.37485927 350.7753348 313.06924646 345.10205559 310.64916992 337.81335449 C310.49682617 334.43835449 310.49682617 334.43835449 310.64916992 331.81335449 C311.03588867 332.47722168 311.42260742 333.14108887 311.82104492 333.82507324 C320.97883671 349.35251725 332.58153889 356.03426081 349.68823242 360.62976074 C354.04854643 361.57164126 358.17139804 362.0490267 362.64916992 361.81335449 C361.32825721 357.85061635 359.6064515 357.29763462 356.08666992 355.12585449 C346.7075687 349.00323075 341.04694596 343.62096981 337.64916992 332.81335449 C337.31916992 331.82335449 336.98916992 330.83335449 336.64916992 329.81335449 C335.23924132 305.87168229 341.30979183 284.50803531 357.01635742 266.02819824 C358.51661932 264.35823459 360.03281671 262.70231986 361.57104492 261.06726074 C363.68791353 258.84472996 363.68791353 258.84472996 365.50073242 256.36413574 C368.1280883 253.24474776 371.04681461 250.90851923 374.27416992 248.43835449 C374.8879248 247.9608374 375.50167969 247.48332031 376.1340332 246.99133301 C380.61912137 243.52791965 385.21807445 240.26724203 389.95385742 237.15319824 C390.51331055 236.7110498 391.07276367 236.26890137 391.64916992 235.81335449 C391.64916992 235.15335449 391.64916992 234.49335449 391.64916992 233.81335449 C365.92394221 234.29790501 343.40369544 247.2377336 325.81713867 265.34069824 C322.68217498 268.91625143 320.07541971 272.73015363 317.64916992 276.81335449 C323.48464973 257.59401305 337.93703554 243.0938142 354.99291992 233.22351074 C363.86725211 228.51228439 372.80747552 225.70598803 382.64916992 223.81335449 C383.61854492 223.60710449 384.58791992 223.40085449 385.58666992 223.18835449 C409.60003794 218.68584799 434.49403126 223.4881704 458.41595459 226.52987671 C461.82639377 226.96278782 465.23779971 227.38784868 468.64916992 227.81335449 C468.67399711 233.09696109 468.69208999 238.38053327 468.70410156 243.66418457 C468.70911217 245.45943799 468.71592247 247.25468736 468.72460938 249.04992676 C468.73681882 251.63904828 468.74243108 254.22811556 468.74682617 256.81726074 C468.75198746 257.61233536 468.75714874 258.40740997 468.76246643 259.22657776 C468.76292601 263.85245794 468.38709518 268.23302933 467.64916992 272.81335449 C467.58860841 274.45820515 467.56135038 276.10508406 467.58666992 277.75085449 C467.60020508 278.90907715 467.60020508 278.90907715 467.61401367 280.09069824 C467.62561523 280.6591748 467.6372168 281.22765137 467.64916992 281.81335449 C471.00603345 282.94265054 472.34359269 282.95032358 475.62963867 281.47741699 C491.76705045 271.2170894 507.70000949 257.01075683 512.08666992 237.50085449 C512.27229492 236.28397949 512.45791992 235.06710449 512.64916992 233.81335449 C515.61916992 234.47335449 518.58916992 235.13335449 521.64916992 235.81335449 C521.31916992 237.13335449 520.98916992 238.45335449 520.64916992 239.81335449 C520.56538486 242.72294827 520.53299098 245.6075669 520.55151367 248.51647949 C520.55292862 249.35426941 520.55434357 250.19205933 520.55580139 251.05523682 C520.56138795 253.72464607 520.57393798 256.3939707 520.58666992 259.06335449 C520.59168666 260.87585328 520.59624926 262.68835338 520.6003418 264.50085449 C520.61135298 268.93838698 520.62860838 273.3758564 520.64916992 277.81335449 C530.38822323 276.37464971 537.01494016 270.41938603 542.83666992 262.67272949 C548.11259363 254.34950502 551.11530104 245.05794574 553.49682617 235.55554199 C554.9286711 232.14823643 556.73467214 231.03881536 559.64916992 228.81335449 C561.27364647 226.70487295 562.7320741 224.67484468 564.14916992 222.43835449 C564.54007813 221.82258545 564.93098633 221.20681641 565.33374023 220.5723877 C569.16207179 214.31833234 571.52747318 207.82160716 573.64916992 200.81335449 C574.09511438 199.41209938 574.54175491 198.01106565 574.98901367 196.61022949 C581.90134085 174.65850918 581.90134085 174.65850918 577.64916992 152.81335449 C573.63474518 145.52791699 567.43626628 141.01220159 560.69482422 136.36560059 C551.85293796 130.26103248 542.49323204 122.99967287 536.64916992 113.81335449 C536.64916992 112.82335449 536.64916992 111.83335449 536.64916992 110.81335449 C540.00763772 112.08752382 543.07245317 113.53468614 546.16870117 115.35241699 C547.4442688 116.09443359 547.4442688 116.09443359 548.74560547 116.85144043 C550.09005737 117.63696289 550.09005737 117.63696289 551.46166992 118.43835449 C558.17194436 122.31626006 564.90477997 126.09458478 571.83666992 129.56335449 C572.50093994 129.89802734 573.16520996 130.2327002 573.84960938 130.57751465 C577.09516678 132.26844164 577.09516678 132.26844164 580.64916992 132.81335449 C581.01928131 127.01494274 580.56138693 121.94320801 577.64916992 116.81335449 C564.35469625 102.04925363 545.21106645 92.20306452 527.5012207 83.70251465 C525.82608962 82.89829274 524.1571613 82.08118215 522.48901367 81.26257324 C494.89608882 68.05357309 466.33414841 61.09161774 435.77416992 60.37585449 C408.27742061 59.68852889 383.45515026 51.8916514 357.70678711 42.94570923 C346.47129292 39.04653354 335.28649681 35.35199687 323.64916992 32.81335449 C322.03812378 32.43255737 322.03812378 32.43255737 320.39453125 32.04406738 C310.79575746 29.91107672 301.65282869 29.29271728 291.83666992 29.37585449 C290.70222443 29.37991806 290.70222443 29.37991806 289.54486084 29.38406372 C275.31854066 29.46071777 261.59369409 30.91179532 247.64916992 33.81335449 C246.28695312 34.09420898 246.28695312 34.09420898 244.8972168 34.3807373 C233.65896241 36.76074802 222.68437682 39.94022695 211.68017578 43.21569824 C186.57377632 50.61197905 161.75721528 54.0397107 135.58666992 54.06335449 C134.80425934 54.06436157 134.02184875 54.06536865 133.21572876 54.06640625 C118.2024541 54.05346328 103.52134479 52.96948295 88.64916992 50.81335449 C87.67834473 50.67413574 86.70751953 50.53491699 85.70727539 50.39147949 C63.64335617 47.11769859 41.72891257 41.94259241 20.44995117 35.28210449 C15.11871844 33.62157479 9.73143944 32.18863101 4.33666992 30.75085449 C-3.37925433 28.69124951 -10.93223736 26.3831438 -18.45239258 23.69616699 C-21.48358758 22.61910995 -21.48358758 22.61910995 -25.35083008 22.81335449 Z " fill="#FDFDFD" transform="translate(210.350830078125,15.1866455078125)"/>
<path d="M0 0 C4.622632 2.3680929 8.90483674 5.16028737 13.1796875 8.1015625 C13.95441406 8.60558594 14.72914063 9.10960938 15.52734375 9.62890625 C21.01756988 13.41493521 21.01756988 13.41493521 21.7890625 17.27734375 C21.19186295 20.16763643 20.5129993 22.79328374 19.4296875 25.5390625 C19.10484375 26.40144531 18.78 27.26382813 18.4453125 28.15234375 C17.1796875 30.2265625 17.1796875 30.2265625 15.3125 31.1015625 C12.79603632 31.24904755 11.16491186 30.78775959 8.8046875 29.9140625 C8.07507813 29.64980469 7.34546875 29.38554688 6.59375 29.11328125 C4.92909595 28.50183065 3.27569779 27.85914337 1.6328125 27.19140625 C-3.41706471 25.78041115 -8.47998824 25.4933541 -13.6953125 25.1015625 C-14.76523437 25.01519531 -15.83515625 24.92882812 -16.9375 24.83984375 C-19.56464949 24.62873352 -22.19214461 24.42451847 -24.8203125 24.2265625 C-27.14017629 17.79379277 -28.20814678 12.2913632 -25.3203125 5.9140625 C-24.8253125 5.0271875 -24.3303125 4.1403125 -23.8203125 3.2265625 C-23.8203125 1.9065625 -23.8203125 0.5865625 -23.8203125 -0.7734375 C-26.46489629 -2.09572939 -28.49792551 -1.87020944 -31.4453125 -1.8359375 C-32.94964844 -1.82240234 -32.94964844 -1.82240234 -34.484375 -1.80859375 C-35.64066406 -1.79119141 -35.64066406 -1.79119141 -36.8203125 -1.7734375 C-28.06766781 -11.35966739 -9.94421621 -4.76565379 0 0 Z " fill="#F8F8F8" transform="translate(523.8203125,80.7734375)"/>
<path d="M0 0 C2.6171875 0.296875 2.6171875 0.296875 6 1 C8.95386347 1.26547293 11.91339683 1.40940017 14.875 1.5625 C15.65875 1.60568359 16.4425 1.64886719 17.25 1.69335938 C19.16650649 1.79853351 21.08323333 1.89967925 23 2 C20.91630612 4.21231696 18.82662892 5.89218355 16.25 7.5 C15.61578125 7.9021875 14.9815625 8.304375 14.328125 8.71875 C8.15905876 12.11380659 3.48754026 13.43459659 -3.4375 13.1875 C-4.53481445 13.16719727 -4.53481445 13.16719727 -5.65429688 13.14648438 C-7.43652422 13.11153874 -9.21836573 13.05774805 -11 13 C-10.34 12.01 -9.68 11.02 -9 10 C-8.34 10 -7.68 10 -7 10 C-6.773125 9.46375 -6.54625 8.9275 -6.3125 8.375 C-4.46871046 5.03861892 -2.75414907 2.69155478 0 0 Z " fill="#F3F3F3" transform="translate(556,101)"/>
<path d="M0 0 C0.33 0 0.66 0 1 0 C1.42372442 3.08016777 1.80902487 6.16397198 2.1875 9.25 C2.30802734 10.12269531 2.42855469 10.99539063 2.55273438 11.89453125 C2.65263672 12.73886719 2.75253906 13.58320313 2.85546875 14.453125 C2.95496826 15.22817383 3.05446777 16.00322266 3.15698242 16.80175781 C3 19 3 19 0 23 C0 15.41 0 7.82 0 0 Z " fill="#D5D5D5" transform="translate(266,321)"/>
<path d="M0 0 C0.33 0.66 0.66 1.32 1 2 C-1.17480035 7.49423248 -1.17480035 7.49423248 -3.9375 9.1875 C-4.618125 9.455625 -5.29875 9.72375 -6 10 C-7.35113205 10.97581759 -8.68946944 11.97029741 -10 13 C-8.48446596 9.52224821 -6.4226544 7.0442016 -3.875 4.25 C-3.15054688 3.45078125 -2.42609375 2.6515625 -1.6796875 1.828125 C-0.84824219 0.92320312 -0.84824219 0.92320312 0 0 Z " fill="#E1E1E1" transform="translate(74,362)"/>
</svg>
