<svg xmlns="http://www.w3.org/2000/svg" xmlns:xlink="http://www.w3.org/1999/xlink" width="1024" zoomAndPan="magnify" viewBox="0 0 768 767.999994" height="1024" preserveAspectRatio="xMidYMid meet" version="1.0"><defs><clipPath id="b9798f041f"><path d="M 253.085938 114 L 720 114 L 720 767.261719 L 253.085938 767.261719 Z M 253.085938 114 " clip-rule="nonzero"/></clipPath><clipPath id="a859f68b33"><path d="M 416 270.109375 L 768 270.109375 L 768 757 L 416 757 Z M 416 270.109375 " clip-rule="nonzero"/></clipPath></defs><path fill="#ffffff" d="M 368.1875 10.808594 C 368.1875 10.808594 364.675781 16.085938 364.085938 18.726562 C 363.496094 21.355469 348.257812 26.339844 348.257812 26.339844 L 336.824219 39.246094 C 336.824219 39.246094 334.773438 48.617188 325.097656 51.847656 C 315.421875 55.074219 307.21875 76.761719 307.21875 76.761719 L 309.859375 79.992188 C 309.859375 79.992188 300.183594 81.453125 292.558594 94.355469 C 284.933594 107.25 287.574219 110.773438 287.574219 110.773438 C 287.574219 110.773438 286.40625 123.667969 279.074219 130.410156 C 271.746094 137.152344 274.972656 145.070312 274.972656 145.070312 L 245.945312 158.554688 L 240.675781 174.089844 L 233.347656 184.058594 L 230.707031 197.835938 L 222.785156 210.4375 C 222.785156 210.4375 215.761719 223.636719 202.269531 226.558594 C 188.785156 229.492188 189.960938 247.371094 189.960938 247.371094 C 189.960938 247.371094 182.925781 240.050781 175.007812 249.421875 C 167.085938 258.804688 169.433594 265.261719 169.433594 265.261719 L 163.871094 268.773438 L 167.085938 298.382812 L 141.886719 318.320312 L 134.261719 316.847656 L 131.328125 327.410156 L 98.789062 361.707031 L 97.621094 376.652344 L 102.015625 375.484375 L 102.3125 380.761719 L 95.855469 390.734375 L 95.855469 398.9375 L 75.925781 419.75 L 75.925781 424.144531 L 72.707031 426.492188 L 60.683594 434.402344 C 60.683594 434.402344 51.597656 455.214844 48.664062 477.5 C 45.730469 499.777344 29.3125 506.8125 29.3125 506.8125 C 29.3125 506.8125 21.109375 510.914062 20.226562 530.855469 C 19.351562 550.785156 6.152344 552.835938 6.152344 552.835938 L 6.152344 573.648438 L 1.179688 575.40625 L 3.808594 561.921875 L 4.101562 556.9375 L 0 549.902344 L 5.859375 545.800781 C 5.859375 545.800781 8.203125 541.699219 9.96875 524.101562 C 11.726562 506.519531 26.671875 494.496094 26.671875 494.496094 L 30.488281 483.0625 L 35.757812 479.257812 L 37.527344 453.753906 L 39.578125 451.996094 C 39.578125 451.996094 57.433594 403.363281 71.824219 386.328125 C 83.6875 372.285156 82.078125 356.425781 82.078125 356.425781 L 80.613281 335.316406 L 74.460938 342.058594 L 79.730469 329.460938 L 80.320312 313.042969 L 78.5625 308.941406 L 83.253906 308.941406 C 83.253906 308.941406 93.226562 297.214844 104.65625 297.214844 C 116.089844 297.214844 114.617188 276.105469 114.617188 276.105469 L 114.617188 269.363281 C 114.617188 269.363281 116.089844 277.863281 123.125 276.988281 C 123.125 276.988281 128.109375 269.363281 138.363281 269.363281 C 148.628906 269.363281 143.644531 244.449219 143.644531 244.449219 C 143.644531 244.449219 145.695312 220.699219 179.402344 203.117188 L 182.335938 194.3125 L 186.734375 192.554688 L 188.492188 182.585938 L 194.359375 176.726562 L 194.359375 166.757812 L 187.027344 169.101562 C 187.027344 169.101562 193.476562 153.863281 214.582031 154.453125 C 214.582031 154.453125 227.195312 133.050781 241.550781 134.21875 C 241.550781 134.21875 249.765625 116.339844 260.3125 110.773438 L 260.605469 96.996094 L 267.054688 91.421875 L 272.921875 80.285156 L 272.332031 89.078125 C 272.332031 89.078125 303.824219 62.152344 313.078125 57.714844 C 313.078125 57.714844 318.628906 46.523438 328.621094 41.875 L 342.976562 25.753906 L 355.882812 16.664062 L 360.277344 12.269531 L 368.1875 10.808594 " fill-opacity="1" fill-rule="nonzero"/><path fill="#ffffff" d="M 83.035156 748.402344 L 90.21875 741.21875 L 94.253906 722.816406 C 94.253906 722.816406 89.324219 711.59375 104.582031 706.207031 C 104.582031 706.207031 93.363281 688.246094 123.894531 672.984375 L 126.585938 663.109375 L 131.078125 660.40625 L 131.078125 649.636719 L 123.894531 649.636719 L 133.769531 637.511719 L 133.769531 627.183594 L 138.261719 630.328125 L 138.261719 621.796875 C 138.261719 621.796875 138.261719 608.324219 144.097656 601.152344 C 144.097656 601.152344 153.066406 562.984375 167.886719 562.984375 C 167.886719 562.984375 174.617188 558.042969 176.417969 553.550781 C 176.417969 553.550781 187.648438 536.945312 186.746094 529.308594 L 192.128906 522.578125 L 196.179688 496.988281 C 196.179688 496.988281 199.324219 485.757812 215.035156 483.96875 C 215.035156 483.96875 210.988281 470.949219 233.441406 464.660156 L 243.769531 443.109375 L 246.914062 446.253906 L 246.914062 430.539062 L 274.742188 405.847656 L 274.742188 392.375 L 287.320312 397.757812 C 287.320312 397.757812 293.601562 387.429688 302.582031 386.085938 C 311.5625 384.738281 308.871094 336.707031 308.871094 336.707031 C 308.871094 336.707031 311.109375 329.523438 328.171875 332.65625 L 328.171875 298.085938 C 328.171875 298.085938 328.171875 285.066406 364.085938 281.480469 L 366.777344 271.605469 L 378.011719 271.605469 L 396.417969 255.890625 L 396.417969 247.363281 L 408.089844 241.074219 L 411.675781 224.011719 L 423.804688 232.089844 L 426.949219 204.25 L 457.480469 180.902344 L 457.480469 170.132812 L 460.171875 149.035156 L 472.738281 144.09375 L 457.921875 141.402344 L 479.921875 133.3125 C 479.921875 133.3125 496.539062 110.417969 516.292969 102.792969 C 516.292969 102.792969 524.371094 86.175781 523.925781 79.445312 C 523.925781 79.445312 536.496094 58.347656 550.410156 56.09375 L 552.660156 59.238281 C 552.660156 59.238281 558.046875 22.871094 590.816406 20.632812 L 598.90625 12.542969 L 598.90625 6.707031 L 604.289062 0.867188 L 589.472656 6.265625 C 589.472656 6.265625 545.476562 24.667969 543.226562 46.21875 C 543.226562 46.21875 532.457031 54.75 522.582031 52.054688 C 512.695312 49.363281 503.722656 62.382812 503.722656 62.382812 L 495.636719 63.730469 L 495.636719 68.222656 L 487.105469 68.222656 L 488.90625 74.5 C 488.90625 74.5 472.289062 78.097656 465.105469 90.664062 C 457.921875 103.234375 452.988281 105.03125 452.988281 105.03125 C 452.988281 105.03125 444.902344 105.484375 444.902344 128.378906 C 444.902344 151.277344 421.550781 137.804688 421.550781 137.804688 C 421.550781 137.804688 413.476562 131.523438 410.78125 131.074219 C 408.089844 130.621094 419.3125 140.949219 419.3125 140.949219 L 404.945312 146.785156 C 404.945312 146.785156 389.683594 171.933594 380.703125 175.078125 C 380.703125 175.078125 375.761719 182.261719 376.664062 187.191406 C 377.558594 192.136719 362.296875 213.234375 346.574219 212.792969 L 346.132812 219.523438 L 340.296875 217.273438 L 340.296875 221.320312 C 340.296875 221.320312 327.277344 233.4375 313.363281 232.542969 C 299.4375 231.636719 302.128906 262.171875 302.128906 262.171875 C 302.128906 262.171875 285.070312 271.152344 279.683594 285.972656 C 279.683594 285.972656 277.886719 302.136719 263.066406 305.722656 C 248.261719 309.320312 237.933594 328.164062 237.933594 328.164062 L 239.277344 359.601562 L 224.460938 390.734375 L 225.804688 394.171875 L 202.015625 428.742188 L 203.363281 443.5625 L 189.890625 462.859375 C 189.890625 462.859375 166.992188 468.253906 154.414062 486.207031 L 163.394531 491.152344 C 163.394531 491.152344 166.539062 505.960938 140.5 535.597656 C 114.460938 565.226562 131.96875 583.1875 131.96875 583.1875 L 117.605469 594.863281 L 119.855469 611.46875 L 112.21875 633.921875 L 109.074219 647.386719 L 101.890625 655.019531 C 101.890625 655.019531 101.4375 676.117188 91.109375 686.898438 C 91.109375 686.898438 98.746094 693.1875 93.8125 705.757812 L 87.976562 725.507812 C 87.976562 725.507812 81.234375 735.382812 83.035156 748.402344 " fill-opacity="1" fill-rule="nonzero"/><path fill="#ffffff" d="M 446.804688 142.253906 L 438.980469 130.820312 L 445.394531 133.175781 Z M 446.804688 142.253906 " fill-opacity="1" fill-rule="nonzero"/><g clip-path="url(#b9798f041f)"><path fill="#ffffff" d="M 415.695312 474.324219 C 415.882812 474.480469 416.050781 474.609375 416.179688 474.714844 C 416.019531 474.578125 415.851562 474.449219 415.695312 474.324219 Z M 416.398438 474.882812 C 416.429688 474.902344 416.460938 474.933594 416.484375 474.945312 C 416.453125 474.921875 416.429688 474.902344 416.398438 474.882812 Z M 414.105469 473.09375 C 414.179688 473.144531 414.253906 473.199219 414.328125 473.25 C 414.253906 473.199219 414.179688 473.144531 414.105469 473.09375 Z M 412.855469 472.105469 C 413.085938 472.292969 413.316406 472.472656 413.550781 472.652344 C 413.308594 472.460938 413.074219 472.285156 412.855469 472.105469 Z M 411.65625 471.167969 C 411.910156 471.367188 412.191406 471.578125 412.464844 471.800781 C 412.171875 471.570312 411.898438 471.359375 411.65625 471.167969 Z M 410.414062 470.203125 C 410.667969 470.402344 410.984375 470.644531 411.328125 470.917969 C 410.960938 470.621094 410.644531 470.378906 410.414062 470.203125 Z M 410.066406 469.929688 C 410.164062 470 410.277344 470.097656 410.414062 470.191406 C 410.277344 470.085938 410.164062 470 410.066406 469.929688 Z M 409.792969 469.71875 C 409.816406 469.726562 409.835938 469.738281 409.859375 469.761719 C 409.835938 469.738281 409.816406 469.726562 409.792969 469.71875 Z M 414.453125 473.355469 C 414.683594 473.535156 414.90625 473.714844 415.117188 473.871094 C 414.882812 473.691406 414.664062 473.523438 414.453125 473.355469 Z M 704.488281 117.746094 C 704.488281 117.746094 700.15625 131.417969 691.488281 133.417969 C 682.824219 135.417969 683.820312 141.746094 683.820312 141.746094 C 683.820312 141.746094 671.160156 141.410156 661.492188 164.738281 C 651.828125 188.066406 615.5 179.410156 615.5 179.410156 L 606.171875 196.070312 C 606.171875 196.070312 543.152344 216.335938 553.566406 240.515625 C 553.828125 241.136719 554.152344 241.765625 554.523438 242.386719 L 536.105469 265.074219 L 516.28125 265.074219 L 516.28125 274.960938 C 514.714844 278.703125 510.527344 276.714844 510.527344 276.714844 C 510.527344 276.714844 476.875 295.046875 476.199219 314.042969 C 476.199219 314.042969 451.882812 329.039062 456.542969 350.03125 L 446.214844 375.355469 L 441.546875 377.027344 L 441.210938 380.351562 C 441.210938 380.351562 427.222656 399.683594 420.890625 420.351562 L 414.558594 420.6875 C 414.558594 420.6875 394.554688 435.011719 390.894531 435.011719 C 387.222656 435.011719 373.5625 467.667969 373.5625 467.667969 L 374.898438 487.996094 L 354.566406 504.65625 L 352.570312 530.316406 L 336.574219 557.640625 L 335.238281 549.324219 L 334.910156 558.652344 C 334.910156 558.652344 321.574219 560.3125 321.574219 575.3125 C 321.574219 590.308594 311.910156 596.976562 311.910156 596.976562 C 311.910156 596.976562 304.433594 602.707031 312.910156 612.300781 C 321.386719 621.890625 306.242188 633.964844 306.242188 633.964844 L 298.910156 636.964844 L 283.25 658.617188 L 286.25 664.625 L 282.914062 665.285156 L 275.921875 677.949219 L 277.257812 694.945312 L 258.925781 723.941406 L 261.257812 731.269531 L 253.929688 767.261719 L 258.925781 760.929688 L 258.925781 758.605469 C 258.925781 758.605469 260.261719 746.605469 266.929688 739.613281 C 273.585938 732.605469 269.253906 724.613281 269.253906 724.613281 C 269.253906 724.613281 281.925781 708.28125 281.589844 699.277344 C 281.589844 699.277344 286.25 680.621094 301.917969 671.617188 C 317.578125 662.625 311.574219 638.300781 309.910156 637.960938 C 308.25 637.625 312.4375 630.296875 312.4375 630.296875 C 312.4375 630.296875 324.910156 624.625 322.910156 612.300781 C 322.910156 612.300781 329.242188 592.644531 350.570312 583.316406 C 371.902344 573.976562 362.898438 558.316406 362.898438 558.316406 C 362.898438 558.316406 377.558594 551.648438 378.558594 533.324219 C 378.558594 533.324219 412.550781 512.324219 414.558594 493.664062 C 416.558594 474.996094 431.878906 486.996094 416.558594 474.996094 C 416.546875 474.996094 416.535156 474.988281 416.527344 474.988281 C 416.546875 474.996094 416.558594 474.996094 416.558594 474.996094 L 420.890625 452.007812 C 420.890625 452.007812 438.210938 447.671875 438.546875 440.34375 L 460.875 440.34375 C 460.875 440.34375 475.875 430.339844 475.199219 423.347656 C 475.199219 423.347656 486.863281 415.355469 494.867188 415.679688 C 494.867188 415.679688 511.863281 389.019531 499.539062 385.695312 C 499.539062 385.695312 503.199219 369.027344 525.191406 358.023438 C 525.191406 358.023438 537.191406 348.03125 539.1875 335.035156 L 546.519531 333.035156 L 552.859375 325.03125 L 557.519531 325.03125 C 557.519531 325.03125 558.183594 309.371094 553.523438 306.039062 C 548.851562 302.714844 552.523438 290.378906 552.523438 290.378906 C 552.523438 290.378906 568.183594 281.046875 565.847656 262.054688 L 566.542969 261.664062 L 573.9375 265.074219 C 573.9375 265.074219 570.84375 262.925781 567.859375 260.941406 L 604.835938 240.390625 L 618.171875 240.390625 L 622.167969 226.390625 C 622.167969 226.390625 648.832031 223.054688 650.167969 199.402344 C 650.167969 199.402344 666.824219 191.734375 669.160156 177.074219 C 669.160156 177.074219 685.15625 152.75 685.15625 145.417969 C 685.15625 138.085938 695.820312 142.085938 695.820312 142.085938 L 698.15625 151.078125 L 698.15625 143.410156 L 703.816406 137.75 L 707.484375 132.417969 L 719.148438 114.421875 C 719.148438 114.421875 711.820312 121.753906 704.488281 117.746094 " fill-opacity="1" fill-rule="nonzero"/></g><g clip-path="url(#a859f68b33)"><path fill="#ffffff" d="M 422.40625 756.492188 C 422.40625 756.492188 435.972656 744.195312 439.359375 743.765625 L 439.359375 727.664062 L 446.5625 723.847656 L 446.5625 706.039062 L 453.347656 698.40625 L 453.347656 691.199219 L 455.890625 680.179688 L 461.824219 677.210938 L 483.878906 658.976562 L 489.390625 647.53125 L 496.59375 644.988281 L 493.628906 629.726562 L 501.253906 625.066406 L 505.492188 608.523438 L 536.441406 579.277344 L 540.679688 579.277344 L 540.679688 572.070312 L 566.964844 558.082031 L 574.167969 560.628906 L 574.167969 558.082031 C 574.167969 558.082031 580.109375 539.425781 570.78125 537.734375 C 570.78125 537.734375 578.839844 526.710938 591.132812 519.925781 L 591.132812 511.871094 L 603.425781 513.996094 L 636.492188 491.097656 C 636.492188 491.097656 639.460938 475.839844 629.710938 474.566406 C 629.710938 474.566406 628.4375 467.78125 632.253906 464.816406 C 632.253906 464.816406 632.675781 452.089844 628.4375 449.125 C 628.4375 449.125 629.289062 435.988281 636.914062 432.171875 L 645.824219 415.207031 L 653.449219 413.09375 L 668.289062 395.707031 L 668.289062 389.777344 L 692.875 379.59375 L 695.421875 383.832031 L 695.421875 377.480469 C 695.421875 377.480469 702.207031 370.699219 700.082031 361.789062 C 697.96875 352.890625 708.136719 357.550781 708.136719 357.550781 L 710.261719 347.382812 C 710.261719 347.382812 719.589844 332.960938 729.339844 332.960938 C 739.089844 332.960938 731.453125 332.960938 731.453125 332.960938 L 734.292969 310.078125 L 773.847656 273.191406 L 767.496094 270.648438 L 756.894531 279.964844 L 751.804688 279.964844 L 751.804688 284.214844 C 751.804688 284.214844 738.238281 305.40625 724.671875 306.679688 C 711.101562 307.953125 714.5 320.667969 714.5 320.667969 C 714.5 320.667969 676.34375 344.414062 673.796875 363.492188 C 673.796875 363.492188 643.699219 358.402344 624.199219 403.34375 L 609.359375 416.058594 L 609.359375 433.445312 L 600.882812 434.714844 L 605.542969 448.703125 L 565.269531 469.054688 L 563.144531 481.351562 L 548.304688 490.679688 L 547.464844 511.871094 L 533.898438 525.007812 L 532.625 539.847656 L 522.023438 550.027344 L 522.023438 561.46875 L 511.421875 577.152344 L 505.070312 577.582031 L 504.21875 584.785156 L 490.652344 601.320312 C 490.652344 601.320312 463.054688 610.511719 470.3125 637.363281 C 470.3125 637.363281 450.800781 659.828125 453.765625 673.816406 L 447.835938 687.804688 L 446.5625 699.257812 L 435.121094 698.40625 L 430.460938 731.050781 L 416.894531 753.945312 L 422.40625 756.492188 " fill-opacity="1" fill-rule="nonzero"/></g></svg>