<svg xmlns="http://www.w3.org/2000/svg" xmlns:xlink="http://www.w3.org/1999/xlink" width="100" zoomAndPan="magnify" viewBox="0 0 75 30.000001" height="40" preserveAspectRatio="xMidYMid meet" version="1.0"><defs><g/><clipPath id="6d858820dc"><path d="M 1.210938 3.949219 L 41 3.949219 L 41 25 L 1.210938 25 Z M 1.210938 3.949219 " clip-rule="nonzero"/></clipPath><clipPath id="5646af2039"><path d="M 45 3.949219 L 58.609375 3.949219 L 58.609375 24 L 45 24 Z M 45 3.949219 " clip-rule="nonzero"/></clipPath><clipPath id="9c827283e0"><path d="M 39 3.949219 L 48 3.949219 L 48 24 L 39 24 Z M 39 3.949219 " clip-rule="nonzero"/></clipPath></defs><g clip-path="url(#6d858820dc)"><path fill="#000000" d="M 2.492188 3.949219 C 8.832031 3.949219 15.175781 3.949219 21.707031 3.949219 C 21.867188 4.425781 21.792969 4.800781 21.722656 5.285156 C 21.710938 5.382812 21.695312 5.476562 21.683594 5.578125 C 21.636719 5.898438 21.589844 6.21875 21.546875 6.539062 C 21.511719 6.761719 21.480469 6.984375 21.449219 7.207031 C 21.367188 7.796875 21.285156 8.386719 21.199219 8.976562 C 21.066406 9.914062 20.933594 10.855469 20.800781 11.792969 C 20.753906 12.121094 20.707031 12.449219 20.660156 12.773438 C 20.519531 13.761719 20.386719 14.742188 20.300781 15.734375 C 21.195312 14.109375 21.964844 12.480469 22.605469 10.738281 C 22.640625 10.644531 22.675781 10.550781 22.710938 10.453125 C 23.410156 8.542969 23.878906 6.558594 24.277344 4.5625 C 24.300781 4.449219 24.320312 4.332031 24.34375 4.214844 C 24.363281 4.125 24.378906 4.039062 24.398438 3.949219 C 26.09375 3.9375 27.785156 3.933594 29.480469 3.929688 C 30.265625 3.925781 31.054688 3.921875 31.839844 3.917969 C 32.601562 3.914062 33.359375 3.914062 34.121094 3.910156 C 34.410156 3.910156 34.699219 3.910156 34.988281 3.90625 C 38.757812 3.882812 38.757812 3.882812 39.960938 4.972656 C 40.832031 6.117188 40.464844 7.992188 40.292969 9.320312 C 40.242188 9.6875 40.1875 10.054688 40.132812 10.417969 C 40.121094 10.507812 40.105469 10.59375 40.09375 10.6875 C 39.917969 11.910156 39.714844 13.207031 38.746094 14.070312 C 38.40625 14.296875 38.109375 14.457031 37.722656 14.582031 C 37.863281 14.652344 38.003906 14.722656 38.148438 14.796875 C 38.601562 15.027344 38.785156 15.273438 39.003906 15.734375 C 39.0625 16.117188 39.058594 16.492188 39.050781 16.878906 C 39.050781 16.992188 39.050781 17.101562 39.046875 17.21875 C 39.019531 18.539062 38.828125 19.828125 38.628906 21.132812 C 38.589844 21.375 38.554688 21.621094 38.519531 21.867188 C 38.484375 22.101562 38.449219 22.332031 38.414062 22.566406 C 38.398438 22.675781 38.382812 22.78125 38.367188 22.894531 C 38.25 23.648438 38.25 23.648438 38.105469 23.933594 C 36.585938 23.933594 35.0625 23.933594 33.496094 23.933594 C 33.496094 23.160156 33.507812 22.550781 33.632812 21.8125 C 33.664062 21.632812 33.691406 21.449219 33.722656 21.269531 C 33.769531 20.992188 33.8125 20.71875 33.863281 20.441406 C 34.078125 19.152344 34.167969 17.941406 34.136719 16.632812 C 33.585938 16.632812 33.035156 16.632812 32.46875 16.632812 C 32.449219 16.804688 32.429688 16.976562 32.40625 17.15625 C 32.226562 18.679688 32.023438 20.199219 31.800781 21.71875 C 31.769531 21.910156 31.742188 22.101562 31.714844 22.292969 C 31.675781 22.5625 31.636719 22.835938 31.597656 23.105469 C 31.5625 23.339844 31.5625 23.339844 31.527344 23.582031 C 31.5 23.695312 31.472656 23.8125 31.445312 23.933594 C 31.0625 24.125 30.667969 24.082031 30.246094 24.078125 C 30.109375 24.078125 30.109375 24.078125 29.964844 24.078125 C 29.769531 24.078125 29.574219 24.078125 29.378906 24.078125 C 29.074219 24.078125 28.773438 24.078125 28.472656 24.078125 C 28.28125 24.078125 28.09375 24.078125 27.902344 24.078125 C 27.8125 24.078125 27.722656 24.078125 27.628906 24.078125 C 26.988281 24.078125 26.988281 24.078125 26.703125 23.933594 C 26.945312 21.957031 27.207031 19.980469 27.480469 18.007812 C 27.542969 17.558594 27.605469 17.113281 27.667969 16.664062 C 27.777344 15.875 27.886719 15.089844 28 14.300781 C 28.175781 13.035156 28.351562 11.769531 28.527344 10.5 C 28.589844 10.0625 28.652344 9.625 28.714844 9.183594 C 28.75 8.914062 28.789062 8.644531 28.824219 8.375 C 28.851562 8.195312 28.851562 8.195312 28.878906 8.011719 C 28.976562 7.296875 29.0625 6.585938 29.140625 5.871094 C 29.054688 5.871094 28.96875 5.871094 28.882812 5.871094 C 28.699219 6.585938 28.519531 7.304688 28.355469 8.027344 C 26.863281 14.59375 23.269531 20.675781 17.492188 24.351562 C 17.222656 24.445312 17.222656 24.445312 16.957031 24.375 C 15.015625 22.917969 14.578125 18.6875 14.253906 16.5 C 13.945312 14.304688 13.996094 12.125 14.148438 9.921875 C 14.191406 9.304688 14.234375 8.683594 14.277344 8.046875 C 12.417969 8.046875 10.558594 8.046875 8.640625 8.046875 C 8.429688 9.402344 8.21875 10.753906 8 12.148438 C 9.351562 12.148438 10.707031 12.148438 12.097656 12.148438 C 12.230469 12.667969 12.210938 12.941406 12.132812 13.460938 C 12.109375 13.617188 12.085938 13.769531 12.0625 13.929688 C 12.039062 14.089844 12.011719 14.25 11.988281 14.414062 C 11.964844 14.574219 11.941406 14.738281 11.914062 14.902344 C 11.734375 16.101562 11.734375 16.101562 11.585938 16.246094 C 11.28125 16.269531 10.980469 16.28125 10.679688 16.289062 C 10.542969 16.292969 10.542969 16.292969 10.402344 16.296875 C 10.113281 16.304688 9.820312 16.3125 9.527344 16.320312 C 9.332031 16.324219 9.136719 16.332031 8.9375 16.335938 C 8.453125 16.351562 7.972656 16.363281 7.488281 16.375 C 7.476562 16.449219 7.464844 16.519531 7.457031 16.59375 C 7.34375 17.351562 7.230469 18.105469 7.117188 18.863281 C 7.078125 19.144531 7.035156 19.425781 6.992188 19.707031 C 6.933594 20.113281 6.871094 20.523438 6.8125 20.929688 C 6.792969 21.054688 6.773438 21.175781 6.757812 21.304688 C 6.625 22.183594 6.484375 23.058594 6.335938 23.933594 C 5.773438 24.03125 5.25 24.078125 4.683594 24.078125 C 4.519531 24.078125 4.351562 24.078125 4.183594 24.078125 C 4.097656 24.078125 4.015625 24.078125 3.925781 24.078125 C 3.667969 24.078125 3.40625 24.078125 3.144531 24.078125 C 2.898438 24.078125 2.898438 24.078125 2.648438 24.078125 C 2.5 24.078125 2.347656 24.078125 2.195312 24.078125 C 1.851562 24.0625 1.851562 24.0625 1.722656 23.933594 C 1.675781 23.035156 1.808594 22.171875 1.9375 21.285156 C 1.972656 21.039062 2.007812 20.792969 2.042969 20.546875 C 2.082031 20.285156 2.121094 20.023438 2.15625 19.757812 C 2.238281 19.210938 2.316406 18.664062 2.394531 18.113281 C 2.613281 16.554688 2.835938 14.996094 3.0625 13.433594 C 3.1875 12.574219 3.308594 11.710938 3.433594 10.847656 C 3.507812 10.300781 3.585938 9.757812 3.667969 9.210938 C 3.726562 8.792969 3.785156 8.375 3.847656 7.957031 C 3.867188 7.804688 3.890625 7.65625 3.914062 7.5 C 3.941406 7.292969 3.941406 7.292969 3.972656 7.078125 C 3.988281 6.960938 4.007812 6.839844 4.023438 6.714844 C 4.03125 6.171875 3.855469 5.839844 3.503906 5.429688 C 3.402344 5.332031 3.300781 5.234375 3.195312 5.132812 C 3.09375 5.035156 2.992188 4.933594 2.886719 4.832031 C 2.636719 4.582031 2.636719 4.582031 2.363281 4.460938 C 2.40625 4.292969 2.449219 4.121094 2.492188 3.949219 Z M 33.621094 7.917969 C 33.5625 8.277344 33.511719 8.632812 33.464844 8.992188 C 33.453125 9.101562 33.4375 9.207031 33.421875 9.320312 C 33.390625 9.546875 33.363281 9.773438 33.332031 10.003906 C 33.285156 10.351562 33.238281 10.703125 33.191406 11.050781 C 33.164062 11.273438 33.132812 11.496094 33.105469 11.714844 C 33.082031 11.875 33.082031 11.875 33.0625 12.035156 C 33.03125 12.285156 33.003906 12.535156 32.980469 12.789062 C 33.210938 13.019531 33.550781 12.9375 33.863281 12.941406 C 34 12.941406 34.136719 12.945312 34.277344 12.945312 C 34.671875 12.945312 34.671875 12.945312 35.03125 12.660156 C 35.128906 12.335938 35.128906 12.335938 35.175781 11.953125 C 35.199219 11.808594 35.21875 11.664062 35.242188 11.515625 C 35.261719 11.363281 35.28125 11.214844 35.304688 11.058594 C 35.324219 10.910156 35.347656 10.765625 35.371094 10.613281 C 35.695312 9.175781 35.695312 9.175781 35.542969 7.792969 C 35.25 7.789062 34.953125 7.785156 34.65625 7.785156 C 34.40625 7.78125 34.40625 7.78125 34.15625 7.777344 C 33.769531 7.746094 33.769531 7.746094 33.621094 7.917969 Z M 33.621094 7.917969 " fill-opacity="1" fill-rule="nonzero"/></g><g clip-path="url(#5646af2039)"><path fill="#000000" d="M 48.867188 3.949219 C 51.953125 3.949219 55.039062 3.949219 58.21875 3.949219 C 58.363281 5.390625 58.363281 5.390625 58.363281 6.09375 C 58.363281 6.332031 58.363281 6.332031 58.363281 6.574219 C 58.363281 6.746094 58.363281 6.917969 58.363281 7.09375 C 58.363281 7.277344 58.363281 7.460938 58.363281 7.644531 C 58.363281 8.140625 58.363281 8.640625 58.363281 9.136719 C 58.359375 9.65625 58.359375 10.179688 58.359375 10.699219 C 58.359375 11.683594 58.359375 12.667969 58.359375 13.652344 C 58.355469 14.773438 58.355469 15.894531 58.355469 17.015625 C 58.355469 19.324219 58.351562 21.628906 58.347656 23.933594 C 56.828125 23.933594 55.304688 23.933594 53.738281 23.933594 C 53.738281 22.835938 53.738281 21.734375 53.738281 20.601562 C 52.804688 20.601562 51.875 20.601562 50.917969 20.601562 C 50.875 20.898438 50.832031 21.195312 50.789062 21.5 C 50.742188 21.707031 50.691406 21.914062 50.636719 22.121094 C 50.597656 22.265625 50.597656 22.265625 50.558594 22.414062 C 50.527344 22.53125 50.496094 22.652344 50.460938 22.773438 C 50.308594 23.347656 50.308594 23.347656 50.148438 23.933594 C 48.585938 23.933594 47.019531 23.933594 45.410156 23.933594 C 45.996094 21.578125 45.996094 21.578125 46.242188 20.722656 C 46.285156 20.574219 46.285156 20.574219 46.328125 20.421875 C 46.417969 20.101562 46.507812 19.78125 46.597656 19.460938 C 46.664062 19.230469 46.730469 19 46.792969 18.769531 C 46.964844 18.164062 47.136719 17.558594 47.308594 16.957031 C 47.445312 16.476562 47.578125 15.996094 47.714844 15.515625 C 47.847656 15.042969 47.984375 14.570312 48.117188 14.09375 C 48.183594 13.859375 48.25 13.625 48.316406 13.390625 C 48.667969 12.148438 49.019531 10.910156 49.382812 9.671875 C 49.472656 9.363281 49.5625 9.054688 49.648438 8.746094 C 49.734375 8.457031 49.816406 8.171875 49.902344 7.886719 C 49.953125 7.714844 50.003906 7.542969 50.054688 7.371094 C 50.097656 7.222656 50.140625 7.074219 50.183594 6.921875 C 50.277344 6.507812 50.316406 6.164062 50.277344 5.742188 C 50.003906 5.414062 50.003906 5.414062 49.636719 5.101562 C 49.492188 4.945312 49.351562 4.789062 49.210938 4.628906 C 49.148438 4.554688 49.082031 4.480469 49.015625 4.402344 C 48.867188 4.203125 48.867188 4.203125 48.867188 3.949219 Z M 53.992188 8.175781 C 53.972656 8.253906 53.953125 8.328125 53.933594 8.40625 C 53.726562 9.207031 53.515625 10.007812 53.308594 10.808594 C 53.230469 11.105469 53.15625 11.402344 53.078125 11.699219 C 52.660156 13.300781 52.242188 14.90625 51.816406 16.503906 C 52.535156 16.503906 53.253906 16.503906 53.992188 16.503906 C 54.152344 13.726562 54.132812 10.953125 54.121094 8.175781 C 54.078125 8.175781 54.035156 8.175781 53.992188 8.175781 Z M 53.992188 8.175781 " fill-opacity="1" fill-rule="nonzero"/></g><g clip-path="url(#9c827283e0)"><path fill="#000000" d="M 40.15625 3.949219 C 42.441406 3.949219 44.722656 3.949219 47.074219 3.949219 C 46.992188 5.203125 46.890625 6.421875 46.710938 7.664062 C 46.6875 7.832031 46.664062 8.003906 46.640625 8.171875 C 46.574219 8.625 46.511719 9.078125 46.445312 9.53125 C 46.378906 10.007812 46.3125 10.484375 46.242188 10.964844 C 46.132812 11.761719 46.019531 12.5625 45.902344 13.363281 C 45.742188 14.488281 45.585938 15.613281 45.425781 16.742188 C 45.300781 17.617188 45.175781 18.496094 45.054688 19.375 C 45.03125 19.515625 45.03125 19.515625 45.011719 19.660156 C 44.925781 20.277344 44.835938 20.898438 44.75 21.519531 C 44.726562 21.675781 44.703125 21.832031 44.679688 21.992188 C 44.660156 22.136719 44.640625 22.28125 44.621094 22.429688 C 44.601562 22.554688 44.582031 22.679688 44.566406 22.804688 C 44.511719 23.183594 44.445312 23.558594 44.382812 23.933594 C 42.820312 23.933594 41.253906 23.933594 39.644531 23.933594 C 39.777344 22.949219 39.914062 21.96875 40.046875 20.984375 C 40.148438 20.246094 40.25 19.507812 40.351562 18.765625 C 40.632812 16.714844 40.914062 14.664062 41.203125 12.613281 C 41.285156 12.023438 41.367188 11.429688 41.449219 10.839844 C 41.496094 10.523438 41.539062 10.207031 41.585938 9.890625 C 41.648438 9.449219 41.710938 9.011719 41.769531 8.574219 C 41.789062 8.445312 41.808594 8.320312 41.828125 8.191406 C 42.003906 7.03125 42.003906 7.03125 41.949219 5.871094 C 41.71875 5.582031 41.492188 5.4375 41.179688 5.230469 C 41.179688 5.144531 41.179688 5.058594 41.179688 4.972656 C 41.097656 4.972656 41.011719 4.972656 40.925781 4.972656 C 40.671875 4.636719 40.417969 4.296875 40.15625 3.949219 Z M 40.15625 3.949219 " fill-opacity="1" fill-rule="nonzero"/></g><g fill="#000000" fill-opacity="1"><g transform="translate(58.605825, 23.840713)"><g><path d="M 9.421875 -3.796875 L 5.75 -3.796875 L 5.75 -8.109375 L 1.4375 -8.109375 L 1.4375 -11.78125 L 5.75 -11.78125 L 5.75 -16.09375 L 9.421875 -16.09375 L 9.421875 -11.78125 L 13.75 -11.78125 L 13.75 -8.109375 L 9.421875 -8.109375 Z M 9.421875 -3.796875 "/></g></g></g></svg>