<?xml version="1.0" encoding="UTF-8"?>
<svg version="1.1" xmlns="http://www.w3.org/2000/svg" width="448" height="171">
<path d="M0 0 C49.5 0 99 0 150 0 C151.23965895 3.71897685 150.67692794 6.649454 150.11962891 10.43383789 C150.01409195 11.18874512 149.90855499 11.94365234 149.79981995 12.72143555 C149.44853519 15.2228031 149.08749655 17.7226644 148.7265625 20.22265625 C148.48024258 21.96551812 148.23459595 23.70847527 147.98959351 25.45152283 C147.3416461 30.05004964 146.6857108 34.64740037 146.027771 39.24450684 C144.97973829 46.577083 143.94405598 53.91141424 142.90781784 61.2456646 C142.54621685 63.79717409 142.18142885 66.34821133 141.81607056 68.89918518 C140.7201265 76.58765757 139.68328795 84.26144622 139 92 C145.9966532 79.32573477 152.00503543 66.59095012 157 53 C157.27295898 52.26491211 157.54591797 51.52982422 157.82714844 50.77246094 C163.29391165 35.85880655 166.94118931 20.36521528 170.04266357 4.8034668 C170.22212902 3.90371628 170.40159447 3.00396576 170.58649826 2.07695007 C170.72295383 1.39155655 170.85940941 0.70616302 171 0 C184.22224949 -0.06970115 197.44445482 -0.12291323 210.66685104 -0.15543652 C216.80742664 -0.17105093 222.94787596 -0.19221185 229.08837891 -0.22631836 C235.02117392 -0.25906264 240.95384793 -0.27688474 246.88672638 -0.28463173 C249.14319003 -0.29014826 251.39964753 -0.3009203 253.65605927 -0.31719017 C283.07496478 -0.52075973 283.07496478 -0.52075973 292.4765625 7.98828125 C299.25919798 16.94483836 296.41476106 31.55562876 295.0546875 41.9453125 C294.65853565 44.79964944 294.2375222 47.64984154 293.8125 50.5 C293.71444061 51.19132019 293.61638123 51.88264038 293.51535034 52.59490967 C292.13895555 62.14151712 290.56620295 72.27019498 283 79 C280.35136672 80.76575552 278.01861871 82.02338806 275 83 C276.093125 83.556875 277.18625 84.11375 278.3125 84.6875 C281.85723757 86.4933097 283.29411271 88.40114527 285 92 C285.4458077 94.98340591 285.42219787 97.91801251 285.37109375 100.9296875 C285.36291122 101.8039035 285.3547287 102.67811951 285.34629822 103.5788269 C285.1303471 113.87517987 283.6294539 123.96343329 282.0625 134.125 C281.78066433 136.040183 281.50006039 137.95554767 281.22070312 139.87109375 C280.95163067 141.68766474 280.68149122 143.50407808 280.41015625 145.3203125 C280.28407486 146.16594757 280.15799347 147.01158264 280.02809143 147.88284302 C279.11866363 153.76267275 279.11866363 153.76267275 278 156 C266.12 156 254.24 156 242 156 C242 149.95623315 242.11600528 145.21718413 243.09375 139.4296875 C243.3218569 138.02347679 243.54971333 136.61722542 243.77734375 135.2109375 C244.13522198 133.05198229 244.49680933 130.89375858 244.86376953 128.73632812 C246.56195283 118.67199284 247.2477223 109.21854495 247 99 C242.71 99 238.42 99 234 99 C233.84144531 100.34964844 233.68289062 101.69929688 233.51953125 103.08984375 C232.09383637 114.9804114 230.5120212 126.84696237 228.76644897 138.6946106 C228.54687032 140.19177485 228.33042633 141.68940215 228.11709595 143.18746948 C227.81488361 145.30219483 227.50089719 147.41483714 227.18359375 149.52734375 C226.91373657 151.36413696 226.91373657 151.36413696 226.63842773 153.23803711 C226.42774658 154.14948486 226.21706543 155.06093262 226 156 C223.00717264 157.49641368 219.93721394 157.14222979 216.65625 157.1328125 C215.56890564 157.13424759 215.56890564 157.13424759 214.45959473 157.13571167 C212.92635003 157.13639243 211.39310245 157.13454536 209.85986328 157.13037109 C207.50937442 157.12502134 205.15907665 157.13031953 202.80859375 157.13671875 C201.32031208 157.13605795 199.83203052 157.13477675 198.34375 157.1328125 C197.63851196 157.13483673 196.93327393 157.13686096 196.20666504 157.13894653 C191.22992486 157.11496243 191.22992486 157.11496243 189 156 C190.88477522 140.55886848 192.90746502 125.14178455 195.06456375 109.73640633 C195.55392436 106.24151658 196.04115246 102.74633467 196.52792358 99.25108337 C197.38426833 93.10451092 198.24238622 86.95818765 199.10113525 80.81195068 C200.48229946 70.92656115 201.86196057 61.04096335 203.23920822 51.15502739 C203.7172887 47.72665972 204.19692269 44.29851187 204.67666626 40.87037659 C204.97022122 38.76523767 205.2637122 36.66008983 205.55712891 34.55493164 C205.75505791 33.14520584 205.75505791 33.14520584 205.95698547 31.70700073 C206.73024975 26.1457341 207.40419234 20.58315123 208 15 C207.34 15 206.68 15 206 15 C204.57367749 20.60092497 203.17320787 26.20245249 201.8984375 31.83984375 C190.22976413 83.1050174 162.17527485 130.56932164 117.0859375 159.26953125 C115 160 115 160 112.90625 159.4296875 C97.75167282 148.06375462 94.36148126 115.05055818 91.81640625 97.98046875 C89.39563012 80.85274038 89.79514548 63.82950446 91 46.625 C91.33 41.79875 91.66 36.9725 92 32 C77.48 32 62.96 32 48 32 C46.35 42.56 44.7 53.12 43 64 C53.56 64 64.12 64 75 64 C76.01715861 68.06863443 75.87269581 70.18402452 75.2578125 74.26171875 C75.07863281 75.46248047 74.89945312 76.66324219 74.71484375 77.90039062 C74.52019531 79.15013672 74.32554688 80.39988281 74.125 81.6875 C73.93808594 82.94884766 73.75117187 84.21019531 73.55859375 85.50976562 C72.13845238 94.86154762 72.13845238 94.86154762 71 96 C68.62661361 96.15971977 66.27881728 96.2592433 63.90234375 96.31640625 C62.83905602 96.3475779 62.83905602 96.3475779 61.75428772 96.37937927 C59.48212695 96.44494598 57.20984736 96.5037923 54.9375 96.5625 C53.40037817 96.60567849 51.8632685 96.64929255 50.32617188 96.69335938 C46.5509041 96.80063449 42.7755164 96.90188137 39 97 C38.91674469 97.56217224 38.83348938 98.12434448 38.74771118 98.70355225 C37.87281881 104.60969007 36.99640199 110.51560031 36.11914062 116.42138672 C35.79291138 118.61892106 35.46705744 120.81651115 35.14160156 123.01416016 C34.67093475 126.19188299 34.19887193 129.36939594 33.7265625 132.546875 C33.58376862 133.5130072 33.44097473 134.4791394 33.29385376 135.47454834 C32.2729783 142.32978469 31.15858285 149.16673522 30 156 C25.63399385 156.76922109 21.54333678 157.12856021 17.10546875 157.1328125 C15.82091797 157.13410156 14.53636719 157.13539063 13.21289062 157.13671875 C12.55264893 157.13462402 11.89240723 157.1325293 11.2121582 157.13037109 C9.17586986 157.12496915 7.1397976 157.13035919 5.10351562 157.13671875 C3.18635742 157.13478516 3.18635742 157.13478516 1.23046875 157.1328125 C0.05895264 157.13168457 -1.11256348 157.13055664 -2.31958008 157.12939453 C-5 157 -5 157 -6 156 C-6.35953037 148.99053122 -5.33095327 142.25367508 -4.31591797 135.3293457 C-4.04150894 133.40862165 -3.76710314 131.48789714 -3.49281907 129.56715524 C-3.19900257 127.51671237 -2.9025107 125.4666715 -2.60534286 123.41671181 C-1.98518663 119.13531529 -1.37522968 114.8525037 -0.76712036 110.56938171 C0.96278506 98.39526834 2.70416957 86.22282718 4.46044922 74.05249023 C5.43194045 67.31981114 6.39393732 60.58584449 7.3455838 53.85033101 C7.94759386 49.59339029 8.56131032 45.33835601 9.18374276 41.08435595 C9.65806754 37.81855376 10.11505194 34.55036908 10.57470703 31.2824707 C10.75021088 30.10677017 10.92571472 28.93106964 11.10653687 27.71974182 C11.32959503 26.09863495 11.32959503 26.09863495 11.55715942 24.44477844 C11.6917412 23.5084876 11.82632298 22.57219675 11.96498299 21.60753345 C12.02217571 17.34869148 10.65416123 14.75667903 7.90625 11.578125 C7.1121875 10.80984375 6.318125 10.0415625 5.5 9.25 C4.7059375 8.47140625 3.911875 7.6928125 3.09375 6.890625 C1.14393698 4.96050345 1.14393698 4.96050345 -1 4 C-0.67 2.68 -0.34 1.36 0 0 Z M243 31 C242.54199912 33.79133483 242.13918598 36.57116853 241.7734375 39.375 C241.66150055 40.21466309 241.5495636 41.05432617 241.43423462 41.91943359 C241.19847102 43.6979583 240.96492275 45.47677784 240.73339844 47.25585938 C240.37639786 49.98929702 240.00895318 52.72119351 239.640625 55.453125 C239.41342737 57.17699975 239.18684406 58.90095559 238.9609375 60.625 C238.79384781 61.85935791 238.79384781 61.85935791 238.62338257 63.11865234 C238.37309813 65.07413113 238.18043714 67.03684387 238 69 C239.79904778 70.79904778 242.45063451 70.17296543 244.875 70.1875 C245.94492188 70.20167969 247.01484375 70.21585938 248.1171875 70.23046875 C251.19796434 70.2194778 251.19796434 70.2194778 254 68 C254.77207008 65.46722331 254.77207008 65.46722331 255.1328125 62.46875 C255.29910156 61.34726562 255.46539062 60.22578125 255.63671875 59.0703125 C255.79785156 57.89210938 255.95898438 56.71390625 256.125 55.5 C256.29386719 54.35273437 256.46273438 53.20546875 256.63671875 52.0234375 C259.18635096 40.81541641 259.18635096 40.81541641 258 30 C255.68756208 29.97314588 253.3750373 29.95367159 251.0625 29.9375 C249.13083984 29.92009766 249.13083984 29.92009766 247.16015625 29.90234375 C244.13701597 29.63467451 244.13701597 29.63467451 243 31 Z " fill="#000000" transform="translate(10,0)"/>
<path d="M0 0 C24.09 0 48.18 0 73 0 C74.125 11.25 74.125 11.25 74.12025452 16.74526978 C74.12231651 18.60858948 74.12231651 18.60858948 74.12442017 20.509552 C74.12088274 21.85223414 74.11724796 23.19491602 74.11352539 24.53759766 C74.11324277 25.97747801 74.11340272 27.4173585 74.1139679 28.85723877 C74.11425293 32.73670101 74.10840394 36.61613187 74.10139394 40.49558687 C74.09511125 44.56080748 74.09455273 48.62602894 74.09336853 52.69125366 C74.09026964 60.37619242 74.08207581 68.06111683 74.07201904 75.74604928 C74.06081296 84.5006471 74.05533616 93.25524562 74.05032361 102.00984883 C74.0398919 120.00657566 74.02156448 138.00328283 74 156 C62.12 156 50.24 156 38 156 C38 147.42 38 138.84 38 130 C30.74 130 23.48 130 16 130 C15.67 132.31 15.34 134.62 15 137 C14.63451793 138.62074544 14.24012804 140.2354214 13.80859375 141.83984375 C13.50779907 142.97087524 13.50779907 142.97087524 13.20092773 144.12475586 C12.94899658 145.05296143 12.69706543 145.98116699 12.4375 146.9375 C11.2309375 151.4234375 11.2309375 151.4234375 10 156 C-2.21 156 -14.42 156 -27 156 C-22.40461668 137.61846671 -22.40461668 137.61846671 -20.50146484 130.9362793 C-20.17355453 129.77352478 -20.17355453 129.77352478 -19.83901978 128.58728027 C-19.13195734 126.08227016 -18.42151046 123.57823508 -17.7109375 121.07421875 C-17.20232783 119.27526829 -16.69391998 117.47626076 -16.18569946 115.67720032 C-14.85354561 110.96375058 -13.51843834 106.25114239 -12.18273926 101.53869629 C-11.12058927 97.78946896 -10.06055088 94.03964638 -9.00066757 90.28977776 C-7.95568085 86.59292398 -6.90985946 82.89630656 -5.86396027 79.19971085 C-5.34627888 77.36958632 -4.82883715 75.53939398 -4.31163788 73.70913315 C-1.57395377 64.02211103 1.18367905 54.34184917 4.00292969 44.67822266 C4.70389107 42.26510637 5.40434776 39.85184412 6.10468674 37.43854713 C6.75527861 35.2068217 7.41451436 32.97777552 8.0741272 30.748703 C8.46569739 29.40135879 8.85686546 28.05389762 9.24755859 26.70629883 C9.58774017 25.54947098 9.92792175 24.39264313 10.27841187 23.20075989 C11.00580328 19.97425829 11.29196424 17.2928794 11 14 C8.85554017 11.43727882 8.85554017 11.43727882 6 9 C4.87590508 7.78903124 3.77188336 6.5591545 2.6875 5.3125 C2.17574219 4.73113281 1.66398437 4.14976562 1.13671875 3.55078125 C0 2 0 2 0 0 Z M40 33 C39.84601746 33.59309464 39.69203491 34.18618927 39.53338623 34.79725647 C37.91135527 41.044434 36.28863086 47.29143113 34.66552734 53.53833008 C34.06216412 55.86087626 33.45896995 58.18346636 32.85595703 60.50610352 C29.60838208 73.01438348 26.35042528 85.51883651 23 98 C28.61 98 34.22 98 40 98 C41.24417164 76.33808304 41.10174299 54.68847523 41 33 C40.67 33 40.34 33 40 33 Z " fill="#000000" transform="translate(372,0)"/>
<path d="M0 0 C17.82 0 35.64 0 54 0 C53.34635863 9.8046206 52.55181257 19.31356623 51.15820312 29.00024414 C50.97202235 30.32268838 50.7863228 31.64520043 50.60105896 32.96777344 C50.10389634 36.50713691 49.60008032 40.04552256 49.09488487 43.58374715 C48.56430127 47.30792352 48.03990762 51.03297178 47.51477051 54.75791931 C46.6340309 60.99919856 45.74936572 67.23991025 44.86181641 73.48022461 C43.61147693 82.27133744 42.36828371 91.06344999 41.12650776 99.85577595 C40.15858248 106.70742377 39.1889025 113.55882348 38.21875 120.41015625 C38.06350074 121.50659419 38.06350074 121.50659419 37.90511513 122.62518239 C37.21869445 127.47174988 36.53063005 132.31808145 35.84179688 137.16430664 C35.66929916 138.38151901 35.49680145 139.59873138 35.31907654 140.85282898 C35.15927811 141.97531036 34.99947968 143.09779175 34.83483887 144.25428772 C34.69694695 145.22481111 34.55905502 146.19533449 34.41698456 147.19526768 C33.9798365 150.13562424 33.48870472 153.06777169 33 156 C20.79 156 8.58 156 -4 156 C-2.9499476 148.32687116 -1.89986521 140.65374694 -0.84912109 132.98071289 C-0.05888186 127.20978943 0.73055097 121.43875667 1.5189991 115.66758823 C3.70650109 99.65800127 5.89921511 83.64937669 8.15520477 67.64927673 C8.80585253 63.03042197 9.4522837 58.41097407 10.09985352 53.79168701 C10.44780014 51.32083732 10.79819287 48.85033076 11.15112305 46.38018799 C11.6406418 42.95349825 12.12190656 39.52573828 12.6015625 36.09765625 C12.74481964 35.1122435 12.88807678 34.12683075 13.03567505 33.11155701 C14.40609455 24.06741054 14.40609455 24.06741054 14 15 C12.2075784 12.76787543 10.41925549 11.61283699 8 10 C8 9.34 8 8.68 8 8 C7.34 8 6.68 8 6 8 C4.02 5.36 2.04 2.72 0 0 Z " fill="#010101" transform="translate(304,0)"/>
<path d="" fill="#FFFFFF" transform="translate(0,0)"/>
<path d="" fill="#FFFFFF" transform="translate(0,0)"/>
<path d="" fill="#FFFFFF" transform="translate(0,0)"/>
<path d="" fill="#FFFFFF" transform="translate(0,0)"/>
<path d="" fill="#FFFFFF" transform="translate(0,0)"/>
<path d="" fill="#FFFFFF" transform="translate(0,0)"/>
<path d="" fill="#FFFFFF" transform="translate(0,0)"/>
<path d="" fill="#FFFFFF" transform="translate(0,0)"/>
<path d="" fill="#FFFFFF" transform="translate(0,0)"/>
<path d="" fill="#FFFFFF" transform="translate(0,0)"/>
<path d="" fill="#FFFFFF" transform="translate(0,0)"/>
<path d="" fill="#FFFFFF" transform="translate(0,0)"/>
<path d="" fill="#FFFFFF" transform="translate(0,0)"/>
<path d="" fill="#FFFFFF" transform="translate(0,0)"/>
<path d="" fill="#FFFFFF" transform="translate(0,0)"/>
<path d="" fill="#FFFFFF" transform="translate(0,0)"/>
<path d="" fill="#FFFFFF" transform="translate(0,0)"/>
<path d="" fill="#FFFFFF" transform="translate(0,0)"/>
<path d="" fill="#FFFFFF" transform="translate(0,0)"/>
<path d="" fill="#FFFFFF" transform="translate(0,0)"/>
<path d="" fill="#FFFFFF" transform="translate(0,0)"/>
<path d="" fill="#FFFFFF" transform="translate(0,0)"/>
<path d="" fill="#FFFFFF" transform="translate(0,0)"/>
<path d="" fill="#FFFFFF" transform="translate(0,0)"/>
<path d="" fill="#FFFFFF" transform="translate(0,0)"/>
</svg>
