<svg xmlns="http://www.w3.org/2000/svg" xmlns:xlink="http://www.w3.org/1999/xlink" width="1200" zoomAndPan="magnify" viewBox="0 0 900 899.99999" height="1200" preserveAspectRatio="xMidYMid meet" version="1.0"><path fill="#ffffff" d="M 70.972656 417.328125 C 68.460938 424.769531 68.257812 433.050781 70.996094 441.035156 L 135.863281 630.117188 C 138.601562 638.105469 143.847656 644.515625 150.398438 648.847656 L 251.289062 484.851562 Z M 70.972656 417.328125 " fill-opacity="1" fill-rule="nonzero"/><path fill="#ffffff" d="M 327.128906 506.964844 C 325.769531 509.171875 323.390625 510.433594 320.917969 510.433594 C 320.066406 510.433594 319.203125 510.285156 318.367188 509.972656 L 265.191406 490.058594 L 164.085938 654.40625 C 170.128906 655.527344 176.523438 655.179688 182.738281 653.046875 L 522.023438 536.648438 C 528.121094 534.558594 533.425781 530.972656 537.59375 526.28125 L 356.878906 458.605469 Z M 327.128906 506.964844 " fill-opacity="1" fill-rule="nonzero"/><path fill="#ffffff" d="M 451.859375 276.410156 C 449.660156 276.003906 447.417969 275.765625 445.152344 275.765625 C 441.191406 275.765625 437.164062 276.410156 433.210938 277.765625 L 93.921875 394.164062 C 87.710938 396.292969 82.449219 399.945312 78.371094 404.539062 L 317.859375 494.222656 Z M 451.859375 276.410156 " fill-opacity="1" fill-rule="nonzero"/><path fill="#ffffff" d="M 480.082031 300.695312 C 477.34375 292.707031 472.109375 286.285156 465.554688 281.953125 L 364.65625 445.960938 L 544.996094 513.492188 C 547.589844 505.820312 547.621094 497.566406 544.949219 489.777344 Z M 480.082031 300.695312 " fill-opacity="1" fill-rule="nonzero"/><path fill="#ffffff" d="M 502.863281 0 L 237.867188 63.566406 L 463.214844 81.539062 Z M 502.863281 0 " fill-opacity="1" fill-rule="nonzero"/><path fill="#ffffff" d="M 188.6875 98.398438 L 511.316406 177.832031 L 463.238281 96.160156 L 192.347656 74.550781 C 187.347656 76.097656 183.898438 80.035156 183.078125 85.308594 C 182.257812 90.597656 184.363281 95.414062 188.6875 98.398438 Z M 188.6875 98.398438 " fill-opacity="1" fill-rule="nonzero"/><path fill="#ffffff" d="M 420.027344 170.363281 L 230.371094 123.667969 L 394.492188 222.871094 Z M 420.027344 170.363281 " fill-opacity="1" fill-rule="nonzero"/><path fill="#ffffff" d="M 885.699219 890.414062 L 856.796875 806.167969 C 855.488281 802.363281 851.34375 800.339844 847.539062 801.640625 C 843.730469 802.945312 841.703125 807.089844 843.011719 810.898438 L 871.914062 895.144531 C 872.949219 898.167969 875.777344 900.066406 878.804688 900.066406 C 879.589844 900.066406 880.386719 899.941406 881.167969 899.671875 C 884.976562 898.367188 887.003906 894.21875 885.699219 890.414062 Z M 885.699219 890.414062 " fill-opacity="1" fill-rule="nonzero"/><path fill="#ffffff" d="M 833.175781 737.3125 C 822.609375 706.519531 804.058594 679.074219 779.523438 657.945312 C 776.476562 655.320312 771.875 655.664062 769.25 658.710938 C 766.621094 661.761719 766.96875 666.363281 770.015625 668.988281 C 792.59375 688.429688 809.664062 713.691406 819.390625 742.039062 L 826.265625 762.085938 C 827.300781 765.109375 830.132812 767.007812 833.15625 767.007812 C 833.941406 767.007812 834.738281 766.882812 835.519531 766.613281 C 839.328125 765.308594 841.355469 761.164062 840.050781 757.355469 Z M 833.175781 737.3125 " fill-opacity="1" fill-rule="nonzero"/><path fill="#ffffff" d="M 721.589844 624.183594 C 682.589844 610.175781 639.480469 609.882812 600.203125 623.355469 L 583.503906 629.085938 C 579.695312 630.390625 577.667969 634.535156 578.972656 638.34375 C 580.011719 641.367188 582.839844 643.265625 585.863281 643.265625 C 586.648438 643.265625 587.449219 643.136719 588.230469 642.871094 L 604.929688 637.140625 C 641.609375 624.558594 680.246094 624.816406 716.664062 637.898438 C 720.449219 639.253906 724.621094 637.292969 725.984375 633.503906 C 727.34375 629.714844 725.378906 625.539062 721.589844 624.183594 Z M 721.589844 624.183594 " fill-opacity="1" fill-rule="nonzero"/><path fill="#ffffff" d="M 503.503906 664.234375 C 502.195312 660.429688 498.050781 658.40625 494.246094 659.707031 L 380.351562 698.78125 C 376.546875 700.085938 374.519531 704.230469 375.824219 708.035156 C 376.863281 711.058594 379.691406 712.960938 382.714844 712.960938 C 383.5 712.960938 384.296875 712.832031 385.082031 712.566406 L 498.972656 673.492188 C 502.78125 672.183594 504.808594 668.039062 503.503906 664.234375 Z M 503.503906 664.234375 " fill-opacity="1" fill-rule="nonzero"/><path fill="#ffffff" d="M 293.410156 728.605469 L 196 762.023438 C 186.6875 765.214844 177.046875 767.328125 167.347656 768.292969 C 163.34375 768.691406 160.421875 772.261719 160.820312 776.265625 C 161.195312 780.023438 164.363281 782.832031 168.0625 782.832031 C 168.304688 782.832031 168.546875 782.816406 168.792969 782.792969 C 179.609375 781.714844 190.351562 779.363281 200.730469 775.804688 L 298.136719 742.386719 C 301.945312 741.082031 303.972656 736.9375 302.667969 733.132812 C 301.359375 729.324219 297.210938 727.300781 293.410156 728.605469 Z M 293.410156 728.605469 " fill-opacity="1" fill-rule="nonzero"/><path fill="#ffffff" d="M 115.015625 762.449219 C 84.886719 752.433594 59.800781 731.757812 44.382812 704.21875 C 42.417969 700.710938 37.980469 699.457031 34.46875 701.421875 C 30.957031 703.386719 29.703125 707.828125 31.671875 711.339844 C 48.867188 742.054688 76.835938 765.113281 110.417969 776.277344 C 111.183594 776.53125 111.957031 776.648438 112.71875 776.648438 C 115.769531 776.648438 118.617188 774.714844 119.628906 771.660156 C 120.898438 767.84375 118.835938 763.71875 115.015625 762.449219 Z M 115.015625 762.449219 " fill-opacity="1" fill-rule="nonzero"/><path fill="#ffffff" d="M 61.167969 546.085938 C 58.203125 543.367188 53.59375 543.5625 50.871094 546.527344 C 26.289062 573.308594 13.046875 608.015625 13.585938 644.257812 C 13.648438 648.242188 16.894531 651.433594 20.871094 651.433594 C 20.90625 651.433594 20.945312 651.433594 20.980469 651.433594 C 25.003906 651.375 28.21875 648.0625 28.160156 644.039062 C 27.675781 611.539062 39.554688 580.40625 61.609375 556.382812 C 64.328125 553.417969 64.132812 548.808594 61.167969 546.085938 Z M 61.167969 546.085938 " fill-opacity="1" fill-rule="nonzero"/><path fill="#ffffff" d="M 649.9375 330.683594 C 648.632812 326.878906 644.488281 324.851562 640.679688 326.15625 L 556.464844 355.046875 C 552.660156 356.351562 550.632812 360.496094 551.9375 364.304688 C 552.972656 367.328125 555.804688 369.226562 558.828125 369.226562 C 559.613281 369.226562 560.410156 369.101562 561.191406 368.832031 L 645.40625 339.941406 C 649.214844 338.636719 651.242188 334.488281 649.9375 330.683594 Z M 649.9375 330.683594 " fill-opacity="1" fill-rule="nonzero"/><path fill="#ffffff" d="M 808.457031 260.324219 C 810.9375 257.15625 810.378906 252.574219 807.207031 250.097656 C 804.039062 247.617188 799.460938 248.175781 796.980469 251.347656 C 782.15625 270.296875 762.238281 284.457031 739.375 292.296875 L 701.972656 305.128906 C 698.164062 306.433594 696.136719 310.578125 697.441406 314.386719 C 698.480469 317.410156 701.308594 319.308594 704.332031 319.308594 C 705.117188 319.308594 705.917969 319.183594 706.699219 318.914062 L 744.101562 306.082031 C 769.640625 297.324219 791.890625 281.5 808.457031 260.324219 Z M 808.457031 260.324219 " fill-opacity="1" fill-rule="nonzero"/><path fill="#ffffff" d="M 758.320312 65.074219 C 785.832031 79.980469 806.582031 104.503906 816.746094 134.125 C 822.808594 151.792969 824.820312 170.085938 822.726562 188.492188 C 822.273438 192.492188 825.144531 196.101562 829.144531 196.554688 C 829.421875 196.585938 829.703125 196.601562 829.976562 196.601562 C 833.632812 196.601562 836.785156 193.859375 837.207031 190.136719 C 839.542969 169.566406 837.296875 149.128906 830.53125 129.398438 C 819.179688 96.308594 796 68.914062 765.265625 52.261719 C 761.722656 50.34375 757.304688 51.65625 755.386719 55.195312 C 753.46875 58.734375 754.785156 63.15625 758.320312 65.074219 Z M 758.320312 65.074219 " fill-opacity="1" fill-rule="nonzero"/><path fill="#ffffff" d="M 544.390625 95.511719 C 545.175781 95.511719 545.972656 95.382812 546.757812 95.117188 L 658.570312 56.757812 C 671.550781 52.304688 685.023438 50.027344 698.609375 49.984375 C 702.632812 49.972656 705.886719 46.703125 705.875 42.675781 C 705.863281 38.660156 702.601562 35.414062 698.589844 35.414062 C 698.582031 35.414062 698.574219 35.414062 698.566406 35.414062 C 683.382812 35.460938 668.332031 38 653.839844 42.972656 L 542.027344 81.332031 C 538.21875 82.640625 536.191406 86.785156 537.496094 90.589844 C 538.539062 93.613281 541.367188 95.511719 544.390625 95.511719 Z M 544.390625 95.511719 " fill-opacity="1" fill-rule="nonzero"/><path fill="#ffffff" d="M 484.125 800.785156 C 475.679688 776.164062 477.226562 750.117188 488.480469 727.433594 C 490.269531 723.832031 488.796875 719.460938 485.191406 717.671875 C 481.589844 715.878906 477.214844 717.351562 475.429688 720.957031 C 462.429688 747.15625 460.625 777.183594 470.34375 805.511719 C 475.496094 820.527344 483.507812 833.945312 494.152344 845.394531 C 495.589844 846.9375 497.535156 847.71875 499.488281 847.71875 C 501.265625 847.71875 503.046875 847.074219 504.449219 845.769531 C 507.398438 843.027344 507.5625 838.417969 504.824219 835.472656 C 495.574219 825.527344 488.609375 813.855469 484.125 800.785156 Z M 484.125 800.785156 " fill-opacity="1" fill-rule="nonzero"/><path fill="#ffffff" d="M 662.425781 792.480469 C 658.515625 791.519531 654.574219 793.910156 653.613281 797.816406 C 646.355469 827.394531 625.484375 850.726562 597.785156 860.230469 C 582.707031 865.402344 566.46875 866.183594 550.816406 862.484375 C 546.90625 861.5625 542.976562 863.984375 542.050781 867.902344 C 541.125 871.816406 543.550781 875.742188 547.46875 876.667969 C 555.0625 878.460938 562.773438 879.355469 570.460938 879.355469 C 581.335938 879.355469 592.15625 877.570312 602.511719 874.015625 C 634.925781 862.898438 659.320312 835.710938 667.765625 801.296875 C 668.722656 797.382812 666.332031 793.4375 662.425781 792.480469 Z M 662.425781 792.480469 " fill-opacity="1" fill-rule="nonzero"/><path fill="#ffffff" d="M 554.585938 672.5 C 554.707031 676.519531 558.121094 679.738281 562.089844 679.5625 C 593.492188 678.601562 623.871094 695.339844 641.34375 723.226562 C 642.726562 725.433594 645.097656 726.644531 647.523438 726.644531 C 648.84375 726.644531 650.183594 726.285156 651.386719 725.53125 C 654.796875 723.394531 655.828125 718.898438 653.691406 715.488281 C 633.484375 683.234375 598.210938 663.886719 561.648438 664.996094 C 557.625 665.117188 554.464844 668.476562 554.585938 672.5 Z M 554.585938 672.5 " fill-opacity="1" fill-rule="nonzero"/></svg>