<svg xmlns="http://www.w3.org/2000/svg" xmlns:xlink="http://www.w3.org/1999/xlink" width="1024" zoomAndPan="magnify" viewBox="0 0 768 767.999994" height="1024" preserveAspectRatio="xMidYMid meet" version="1.0"><path fill="#b3b3b3" d="M 768.035156 384.015625 C 768.035156 482.261719 731.167969 571.859375 670.460938 639.769531 C 600.15625 718.492188 497.882812 768.027344 384.023438 768.027344 C 270.164062 768.027344 167.855469 718.492188 97.582031 639.769531 C 36.878906 571.859375 0.0117188 482.261719 0.0117188 384.015625 C 0.0117188 171.945312 171.917969 0.0078125 384.023438 0.0078125 C 596.09375 0.0078125 768.035156 171.945312 768.035156 384.015625 " fill-opacity="1" fill-rule="nonzero"/><path fill="#f2f2f2" d="M 384.023438 454.753906 C 453.621094 454.753906 517.015625 376.011719 517.015625 289.546875 C 517.015625 207.855469 501.214844 127.074219 384.023438 127.074219 C 266.816406 127.074219 251.011719 207.855469 251.011719 289.546875 C 251.011719 376.011719 314.410156 454.753906 384.023438 454.753906 " fill-opacity="1" fill-rule="nonzero"/><path fill="#f2f2f2" d="M 670.460938 639.769531 C 600.15625 718.492188 497.882812 768.027344 384.023438 768.027344 C 270.164062 768.027344 167.855469 718.492188 97.582031 639.769531 C 96.367188 592.339844 127.949219 482.453125 289.042969 448.628906 C 316.597656 476.753906 350.515625 492.65625 384.023438 492.65625 C 417.527344 492.65625 451.417969 476.753906 478.96875 448.628906 C 640.09375 482.453125 671.648438 592.339844 670.460938 639.769531 " fill-opacity="1" fill-rule="nonzero"/></svg>